<svg t="1766249102740" class="icon" viewBox="0 0 1024 1024" version="1.1" xmlns="http://www.w3.org/2000/svg" p-id="4376" width="32" height="32"><path d="M491.456 981.312c-133.248 0-261.76-32.896-380.8-95.552a45.12 45.12 0 0 1-25.344-40.768V179.008c0-17.28 9.536-32.896 25.408-40.768C229.696 75.52 358.208 42.688 491.456 42.688s261.76 32.896 380.8 95.552a45.12 45.12 0 0 1 25.344 40.768v664.448c0 17.216-9.536 32.896-25.408 40.704a794.688 794.688 0 0 1-380.736 97.152z m-310.912-166.08c98.304 46.976 201.472 72.064 310.912 72.064 109.44 0 212.608-23.488 310.912-72.064V208.768A695.68 695.68 0 0 0 491.52 136.704a695.68 695.68 0 0 0-310.912 72.064v606.464z" fill="currentColor" p-id="4377"></path><path d="M491.456 379.584c-133.248 0-261.76-32.896-380.8-95.616a46.4 46.4 0 0 1-19.008-64.256 47.616 47.616 0 0 1 65.088-18.752 698.24 698.24 0 0 0 334.72 84.608c117.376 0 230.016-28.16 334.72-84.608a48.96 48.96 0 0 1 65.088 18.752 47.744 47.744 0 0 1-19.072 64.256c-118.976 62.72-247.488 95.616-380.736 95.616zM491.456 680.448c-133.248 0-261.76-32.896-380.8-95.552a46.4 46.4 0 0 1-19.008-64.256 47.616 47.616 0 0 1 65.088-18.816 698.24 698.24 0 0 0 334.72 84.608c117.376 0 230.016-28.16 334.72-84.608a49.024 49.024 0 0 1 65.088 18.816 47.744 47.744 0 0 1-19.072 64.256c-118.976 62.656-247.488 95.552-380.736 95.552z" fill="currentColor" p-id="4378"></path></svg>