<svg t="1766281462677" class="icon" viewBox="0 0 1024 1024" version="1.1" xmlns="http://www.w3.org/2000/svg" p-id="26762" width="32" height="32"><path d="M854.592 288.64a32 32 0 0 1 9.408 22.656V928a32 32 0 0 1-32 32H192a32 32 0 0 1-32-32v-832A32 32 0 0 1 192 64h424.704c8.512 0 16.64 3.392 22.72 9.408l215.168 215.296z m-64.384 37.376l-188.16-188.16v188.16h188.16zM320 481.92a8 8 0 0 0-8 8v48c0 4.48 3.584 8 8 8h384a8 8 0 0 0 8-8v-48A8 8 0 0 0 704 481.984H320z m0 136a8 8 0 0 0-8 8v48c0 4.48 3.584 8 8 8h184A8 8 0 0 0 512 673.984v-48a8 8 0 0 0-8-8H320z" p-id="26763"></path></svg>