<svg t="1766281123169" class="icon" viewBox="0 0 1024 1024" version="1.1" xmlns="http://www.w3.org/2000/svg" p-id="17568" width="32" height="32"><path d="M512 958.24a31.904 31.904 0 0 1-15.264-3.872l-384-208.064A32 32 0 0 1 96 718.176V302.272a32 32 0 0 1 47.232-28.128L512 473.888l368.736-199.744A32 32 0 0 1 928 302.272v415.936a32 32 0 0 1-16.736 28.128l-384 208.064c-4.768 2.56-10.016 3.84-15.264 3.84zM160 699.136l352 190.72 352-190.72V356l-336.768 182.432c-9.504 5.12-20.96 5.12-30.464 0L160 356v343.136z" fill="#40D1E7" p-id="17569"></path><path d="M128 302.272l384 208 384-208-384-208z" fill="#D9FAFF" p-id="17570"></path><path d="M512 542.272c-5.248 0-10.496-1.312-15.232-3.872l-384-208a32 32 0 0 1 0-56.256l384-208a31.968 31.968 0 0 1 30.464 0l384 208a31.936 31.936 0 0 1 0.032 56.256l-384 208c-4.768 2.56-10.016 3.872-15.264 3.872z m-316.8-240l316.8 171.616 316.8-171.616L512 130.656 195.2 302.272z" fill="#40D1E7" p-id="17571"></path><path d="M239.52 702.24V564.8h70.784c13.12 0 23.168 1.12 30.08 3.36a32 32 0 0 1 16.768 12.512c4.224 6.08 6.368 13.504 6.368 22.272 0 7.616-1.632 14.208-4.864 19.744s-7.744 10.016-13.408 13.44a51.776 51.776 0 0 1-14.912 5.44c5.056 1.728 8.736 3.328 11.04 5.056 1.568 1.12 3.84 3.52 6.784 7.232 2.976 3.68 4.96 6.56 5.952 8.576l20.576 39.808h-48L304 660.288c-2.88-5.44-5.44-8.96-7.68-10.592a17.92 17.92 0 0 0-10.4-3.2h-3.744v55.744H239.52z m42.656-81.664h17.92c1.952 0 5.696-0.672 11.264-1.92a11.392 11.392 0 0 0 6.88-4.32 12.8 12.8 0 0 0 2.656-7.968c0-4.448-1.408-7.84-4.224-10.208-2.816-2.336-8.096-3.52-15.84-3.52h-18.656v27.936zM491.872 662.016H415.36c0.672 6.08 2.336 10.688 4.96 13.696a18.048 18.048 0 0 0 14.432 6.432 21.184 21.184 0 0 0 10.688-2.816 25.92 25.92 0 0 0 6.656-6.24l37.6 3.424c-5.76 10.016-12.672 17.184-20.8 21.504-8.128 4.352-19.776 6.56-34.976 6.56-13.184 0-23.552-1.888-31.136-5.6-7.584-3.712-13.792-9.632-18.784-17.728s-7.456-17.6-7.456-28.576c0-15.52 4.992-28.128 14.944-37.792 9.952-9.632 23.744-14.4 41.312-14.4 14.24 0 25.504 2.112 33.76 6.432 8.256 4.32 14.528 10.56 18.848 18.752 4.32 8.192 6.464 18.88 6.464 31.968v4.384z m-38.816-18.336c-0.736-7.36-2.72-12.672-5.952-15.84s-7.456-4.768-12.704-4.768a17.184 17.184 0 0 0-14.528 7.264c-2.304 3.008-3.776 7.424-4.416 13.408l37.6-0.064zM609.824 564.8v137.44H574.08v-14.688c-4.96 6.24-9.568 10.432-13.696 12.672a38.624 38.624 0 0 1-18.368 4.352c-13.568 0-23.936-5.184-31.072-15.456-7.136-10.304-10.72-22.848-10.72-37.6 0-16.544 3.968-29.12 11.872-37.92s17.984-13.088 30.144-13.088c5.952 0 11.328 0.96 16.16 3.008 4.832 2.016 9.152 4.992 12.896 8.992v-47.616h38.496v-0.096z m-38.272 87.424c0-7.776-1.696-13.632-4.96-17.472s-7.456-5.76-12.608-5.76a13.92 13.92 0 0 0-11.168 5.536c-3.008 3.648-4.512 9.92-4.512 18.56 0 8.128 1.536 14.08 4.64 17.856a14.336 14.336 0 0 0 11.488 5.696c4.832 0 8.896-1.952 12.192-5.76s4.928-10.08 4.928-18.656zM630.048 564.8h38.112v26.016h-38.112v-26.016z m0 37.92h38.112v99.52h-38.112v-99.52zM681.216 674.624l37.92-3.552a18.912 18.912 0 0 0 6.528 9.696 19.52 19.52 0 0 0 11.296 2.912c5.12 0 9.056-1.088 11.872-3.328 2.176-1.632 3.328-3.648 3.328-6.08 0-2.752-1.44-4.832-4.32-6.336-2.048-1.056-7.52-2.368-16.448-3.936-13.248-2.304-22.432-4.48-27.584-6.432s-9.536-5.28-13.024-9.984a26.208 26.208 0 0 1-5.312-16c0-6.56 1.952-12.192 5.76-16.96 3.776-4.768 9.024-8.288 15.712-10.624s15.648-3.52 26.912-3.52c11.872 0 20.672 0.896 26.304 2.752 5.696 1.824 10.368 4.64 14.112 8.448 3.808 3.808 6.944 8.928 9.44 15.424l-36.192 3.552a12.544 12.544 0 0 0-4.672-7.072 19.072 19.072 0 0 0-10.88-3.008c-4.32 0-7.424 0.768-9.408 2.304-1.984 1.568-2.976 3.36-2.976 5.568 0 2.432 1.248 4.32 3.744 5.568s7.936 2.336 16.352 3.328c12.672 1.44 22.08 3.392 28.32 6.016a31.04 31.04 0 0 1 14.208 10.944 26.816 26.816 0 0 1 4.928 15.616 30.592 30.592 0 0 1-5.248 16.768c-3.424 5.44-8.928 9.792-16.416 12.96-7.456 3.232-17.632 4.8-30.528 4.8-18.176 0-31.136-2.56-38.848-7.744s-12.736-12.512-14.88-22.08z" fill="#40D1E7" p-id="17572"></path></svg>