<svg t="1766928014470" class="icon" viewBox="0 0 1024 1024" version="1.1" xmlns="http://www.w3.org/2000/svg" p-id="2419" width="32" height="32"><path d="M828.952381 121.904762a73.142857 73.142857 0 0 1 73.142857 73.142857v633.904762a73.142857 73.142857 0 0 1-73.142857 73.142857H195.047619a73.142857 73.142857 0 0 1-73.142857-73.142857V195.047619a73.142857 73.142857 0 0 1 73.142857-73.142857h633.904762zM316.952381 719.238095H195.047619V828.952381h121.904762v-109.714286z m512 0H390.095238V828.952381h438.857143v-109.714286zM316.952381 536.380952H195.047619v109.714286h121.904762V536.380952z m512 0H390.095238v109.714286h438.857143V536.380952zM195.047619 353.52381V463.238095h121.904762v-109.714285H195.047619zM828.952381 195.047619H195.047619v85.333333h633.904762V195.047619zM390.095238 463.238095h438.857143v-109.714285H390.095238V463.238095z" p-id="2420" fill="#1296db"></path></svg>