<svg t="1686809572049" class="icon" viewBox="0 0 1024 1024" version="1.1" xmlns="http://www.w3.org/2000/svg" p-id="1710" width="200" height="200"><path d="M488 264.64h48v223.2h-48z" p-id="1711"></path><path d="M400.32 352.32h223.2v48H400.32z" p-id="1712"></path><path d="M525.92 602.72c-4.32 0-8.64-1.12-12.32-3.52l-251.2-151.52c-7.2-4.32-11.68-12.16-11.68-20.48V219.68c0-13.28 10.72-24 24-24h474.56c13.28 0 24 10.72 24 24v211.36c0 8-4 15.52-10.72 20L539.2 598.88c-4 2.56-8.64 3.84-13.28 3.84z m-227.2-188.96l226.56 136.64 200-132.32v-174.4H298.72v170.08z" p-id="1713"></path><path d="M812.16 828.48H211.84c-13.28 0-24-10.72-24-24V389.28c0-8.64 4.64-16.64 12.16-20.96 7.52-4.32 16.8-4.16 24.16 0.32L525.28 550.4 772.8 386.56l-39.52-35.04 31.84-35.84 62.88 55.84c5.6 4.96 8.48 12.16 8 19.68-0.48 7.36-4.48 14.24-10.72 18.4L539.2 598.88c-7.68 5.12-17.76 5.28-25.6 0.48L235.84 431.84v348.48h552.32V523.84h48v280.64c0 13.12-10.72 24-24 24z" p-id="1714"></path><path d="M195.92 371.376l62.848-55.728 31.84 35.904-62.848 55.744z" p-id="1715"></path></svg>