<svg t="1711702665971" class="icon" viewBox="0 0 1024 1024" version="1.1" xmlns="http://www.w3.org/2000/svg" p-id="2535" width="200" height="200"><path d="M495.5 659.7c0-94.06 47.13-177.01 118.45-225.61 1.25-21.66 0.69-61.7-20.58-61.7 0 0-12.14 2.43-7.28-14.57 2.43-31.56 2.43-60.7 0-89.83-2.43-19.43 2.43-75.27-36.42-82.55-14.57-2.42-29.14-2.42-43.7 0-17 0-33.99-36.42-58.27-36.42l-53.41 7.28c-24.28 0-21.85 7.28-33.99 9.71-12.14 0-26.71 2.43-38.85 4.85-38.85 9.71-53.41 63.13-55.84 82.55-2.43 16.99-2.43 72.84-2.43 101.97 4.86 17-9.71 17-9.71 17-24.28-2.43-14.57 75.26-14.57 75.26 4.86 17 0 26.71 36.42 41.28 12.14 31.56 33.99 55.84 60.7 72.84 0 0 2.43 31.56 2.43 53.42-2.43-2.43 12.14 55.84-99.54 72.84-111.69 17-133.54 53.41-155.39 72.84C61.67 782.71 64.1 874.97 64.1 874.97h536.1c-63.48-49.53-104.7-127.48-104.7-215.27z" p-id="2536"></path><path d="M760.32 466.13c-110.29 0-199.68 86.65-199.68 193.56 0 106.88 89.39 193.56 199.68 193.56S960 766.57 960 659.69c0-106.91-89.39-193.56-199.68-193.56z m37.54 231.1v111.75h-75.08V697.23H611.02v-75.08h111.75V510.4h75.08v111.75H909.6v75.08H797.86z" p-id="2537"></path></svg>