<svg t="1702346028998" class="icon" viewBox="0 0 1024 1024" version="1.1" xmlns="http://www.w3.org/2000/svg" p-id="6213" width="200" height="200"><path d="M345.6 723.2 678.4 723.2 599.424 556.8 424.576 556.8ZM448 128.4992l128 0 0 223.9232-128 0 0-223.9232ZM894.9248 653.4272 894.9248 266.4256c0-76.192-61.7728-137.9264-137.8752-137.9264l-100.2496 0 0 96.1856 38.5856 0c57.1136 0 103.296 46.3104 103.296 103.296l0 312.2688 0 55.7312c0 1.1264-0.3136 2.3424-0.3136 3.488-1.8624 55.3984-47.168 99.8016-102.9824 99.8016l-367.936 0c-57.024 0-103.2064-46.2656-103.2064-103.2896l0-368c0-55.2384 43.5072-100.0512 98.1184-102.8032 1.696-0.0832 3.3984-0.4928 5.088-0.4928l39.7504 0L367.2 128.4992 302.144 128.4992l-36.2688 0C189.6896 128.4992 128 190.2336 128 266.4256l0 491.2192c0 76.096 61.6896 137.856 137.8752 137.856l491.1744 0c76.1856 0 137.8752-61.76 137.8752-137.856l0-38.144L896 719.5008l0-66.3488C895.6288 653.152 895.3664 653.3312 894.9248 653.4272zM384 349.8496 512 486.3808 640 349.8496Z" p-id="6214"></path></svg>