<svg t="1742266203177" class="icon" viewBox="0 0 1024 1024" version="1.1" xmlns="http://www.w3.org/2000/svg" p-id="2623" width="200" height="200"><path d="M883.2 346.88V292.266667L512 72.106667 140.8 292.266667V426.666667h59.733333V326.4L512 141.226667l311.466667 185.173333v20.48a85.333333 85.333333 0 1 0 59.733333 0zM823.466667 697.6L512 882.773333l-311.466667-185.173333v-20.48a85.333333 85.333333 0 1 0-59.733333 0v54.613333l371.2 220.16 371.2-220.16V597.333333h-59.733333z" p-id="2624"></path><path d="M450.133333 548.693333h57.6l-28.16-84.053333-29.44 84.053333z" p-id="2625"></path><path d="M725.333333 640V384l-213.333333-128-213.333333 128v256l213.333333 128z m-123.306666-243.2h45.226666v230.4h-45.226666z m-178.346667 230.4h-46.933333l85.333333-230.4h34.986667l85.333333 230.4H533.333333l-13.653333-42.666667h-81.92z" p-id="2626"></path></svg>