<svg t="1677580949356" class="icon" viewBox="0 0 1024 1024" version="1.1" xmlns="http://www.w3.org/2000/svg" p-id="11557" width="200" height="200"><path d="M215.424 917.888a75.306667 75.306667 0 0 1-74.666667-75.818667V201.557333a75.306667 75.306667 0 0 1 74.666667-75.818666h301.824a32 32 0 1 1 0 64H215.424a11.264 11.264 0 0 0-10.624 11.776v640.426666a11.264 11.264 0 0 0 10.624 11.776h515.157333a11.264 11.264 0 0 0 10.666667-11.776v-321.493333a32 32 0 1 1 64 0v321.493333a75.306667 75.306667 0 0 1-74.666667 75.818667z m77.44-204.8a32 32 0 0 1 0-64h290.133333a32 32 0 0 1 0 64z m0-150.442667a32 32 0 0 1 0-64h290.133333a32 32 0 0 1 0 64z m279.509333-131.157333a32 32 0 0 1 0-45.269333l60.970667-61.013334-30.208-30.421333a41.984 41.984 0 0 1-12.8-38.698667 42.666667 42.666667 0 0 1 24.448-31.701333l106.666667-54.272a13.312 13.312 0 0 0 4.266666-5.546667l12.330667-29.653333a41.514667 41.514667 0 0 1 28.885333-27.605333 42.368 42.368 0 0 1 41.301334 12.8l82.517333 85.034666a31.061333 31.061333 0 0 1 2.816 3.285334 42.069333 42.069333 0 0 1 9.770667 32.725333c0 0.810667-0.256 1.578667-0.384 2.389333a42.965333 42.965333 0 0 1-24.576 30.421334l-26.624 13.226666a25.856 25.856 0 0 0-8.533334 8.533334l-58.24 102.4a42.666667 42.666667 0 0 1-32.128 22.954666 35.626667 35.626667 0 0 1-6.698666 0.554667 42.368 42.368 0 0 1-31.36-14.336l-36.096-36.437333-60.885334 60.885333a32.085333 32.085333 0 0 1-45.226666 0z m211.968-241.834667a77.738667 77.738667 0 0 1-33.024 36.821334l-83.456 42.666666 33.194667 33.493334 15.061333 15.146666 25.6 25.6 46.208-81.066666a90.965333 90.965333 0 0 1 33.706667-32.213334l2.816-1.365333-39.722667-40.832zM292.949333 412.202667a32 32 0 0 1 0-64h175.530667a32 32 0 1 1 0 64z" p-id="11558"></path></svg>
