<svg t="1760666088090" class="icon" viewBox="0 0 1024 1024" version="1.1" xmlns="http://www.w3.org/2000/svg" p-id="3277" width="200" height="200"><path d="M992.0608 672a32 32 0 0 1 31.488 26.24L1024.0608 704v223.36a96 96 0 0 1-86.72 95.552l-9.28 0.384H192.0608a96 96 0 0 1-95.552-86.72l-0.448-9.28V896h64v31.36a32 32 0 0 0 26.24 31.424l5.76 0.512h736a32 32 0 0 0 31.488-26.24l0.512-5.76V704a32 32 0 0 1 32-32zM320.0608 0a32 32 0 0 1 5.76 63.488L320.0608 64H192.0608a32 32 0 0 0-31.488 26.24L160.0608 96V576h-64V96A96 96 0 0 1 182.8448 0.448L192.0608 0h128zM672.0608 0a352 352 0 1 1 0 704 352 352 0 0 1 0-704z m0 64a288 288 0 1 0 0 576 288 288 0 0 0 0-576zM288.0608 640a32 32 0 0 1 5.76 63.488L288.0608 704h-256a32 32 0 0 1-5.76-63.488L32.0608 640h256z" fill="#000000" p-id="3278"></path><path d="M792.8288 252.8a32 32 0 0 1 51.84 37.12l-3.392 4.672-155.904 180.608a32 32 0 0 1-38.656 7.68l-5.312-3.392-130.56-102.272a32 32 0 0 1 34.624-53.568l4.864 3.2 106.496 83.392 136-157.44zM288.0608 768a32 32 0 0 1 5.76 63.488L288.0608 832h-256a32 32 0 0 1-5.76-63.488L32.0608 768h256z" fill="#000000" p-id="3279"></path></svg>