<svg t="1680077847477" class="icon" viewBox="0 0 1024 1024" version="1.1" xmlns="http://www.w3.org/2000/svg" p-id="21832" width="200" height="200"><path d="M192 256h640c17.6 0 32-14.4 32-32s-14.4-32-32-32H192c-17.6 0-32 14.4-32 32s14.4 32 32 32zM256 128h512c17.6 0 32-14.4 32-32s-14.4-32-32-32H256c-17.6 0-32 14.4-32 32s14.4 32 32 32zM800 320H224c-70.4 0-128 57.6-128 128v384c0 70.4 57.6 128 128 128h576c70.4 0 128-57.6 128-128V448c0-70.4-57.6-128-128-128zM670.392 707.882c24.89 24.89 24.89 65.619 0 90.51-24.89 24.89-65.619 24.89-90.51 0L512 730.51l-67.882 67.882c-24.89 24.89-65.619 24.89-90.51 0-24.89-24.89-24.89-65.619 0-90.51L421.49 640l-67.882-67.882c-24.89-24.89-24.89-65.619 0-90.51 24.89-24.89 65.619-24.89 90.51 0L512 549.49l67.882-67.882c24.89-24.89 65.619-24.89 90.51 0 24.89 24.89 24.89 65.619 0 90.51L602.51 640l67.882 67.882z" p-id="21833"></path></svg>