<?xml version="1.0" encoding="UTF-8"?>
<svg width="13px" height="16px" viewBox="0 0 13 16" version="1.1" xmlns="http://www.w3.org/2000/svg" xmlns:xlink="http://www.w3.org/1999/xlink">
    <title>编组 18备份 4</title>
    <g id="工作看板" stroke="none" stroke-width="1" fill="none" fill-rule="evenodd">
        <g id="05试卷预览" transform="translate(-854.000000, -469.000000)">
            <g id="编组-28" transform="translate(348.000000, 457.000000)">
                <g id="编组-29" transform="translate(507.000000, 10.000000)">
                    <g id="编组-36" transform="translate(0.000000, 3.000000)">
                        <polygon id="矩形" stroke="#000000" stroke-width="0.928571429" points="0 -5.27159437e-14 8.43806941 0 11 2.97345133 11 14 0 14"></polygon>
                        <path d="M2.5,10 L8.5,10 C8.77614237,10 9,10.2238576 9,10.5 C9,10.7761424 8.77614237,11 8.5,11 L2.5,11 C2.22385763,11 2,10.7761424 2,10.5 C2,10.2238576 2.22385763,10 2.5,10 Z" id="矩形备份-15" fill="#000000"></path>
                        <g id="编组-35" transform="translate(3.000000, 4.000000)" fill="#000000">
                            <rect id="矩形备份-31" transform="translate(3.729674, 1.803707) scale(-1, 1) rotate(-313.000000) translate(-3.729674, -1.803707) " x="1.72967357" y="1.30370658" width="4" height="1" rx="0.5"></rect>
                            <rect id="矩形备份-32" transform="translate(1.729674, 1.803707) rotate(-313.000000) translate(-1.729674, -1.803707) " x="-0.270326429" y="1.30370658" width="4" height="1" rx="0.5"></rect>
                        </g>
                    </g>
                </g>
            </g>
        </g>
    </g>
</svg>