<svg t="1680078032535" class="icon" viewBox="0 0 1024 1024" version="1.1" xmlns="http://www.w3.org/2000/svg" p-id="22025" width="200" height="200"><path d="M192 256h640c17.6 0 32-14.4 32-32s-14.4-32-32-32H192c-17.6 0-32 14.4-32 32s14.4 32 32 32zM256 128h512c17.6 0 32-14.4 32-32s-14.4-32-32-32H256c-17.6 0-32 14.4-32 32s14.4 32 32 32zM800 320H224c-70.4 0-128 57.6-128 128v384c0 70.4 57.6 128 128 128h576c70.4 0 128-57.6 128-128V448c0-70.4-57.6-128-128-128z m-64 320c0 35.2-28.8 64-64 64h-96v96c0 35.2-28.8 64-64 64s-64-28.8-64-64v-96h-96c-35.2 0-64-28.8-64-64s28.8-64 64-64h96v-96c0-35.2 28.8-64 64-64s64 28.8 64 64v96h96c35.2 0 64 28.8 64 64z" p-id="22026"></path></svg>