<svg t="1680167871261" class="icon" viewBox="0 0 1024 1024" version="1.1" xmlns="http://www.w3.org/2000/svg" p-id="4677" width="200" height="200"><path d="M616.168989 373.511879l-71.018473 70.924329c7.731078 3.430122 15.219633 7.731078 21.617343 14.104229 14.135952 14.217816 21.017686 32.274054 21.080108 50.873668-0.062422 18.506493-6.943133 36.684504-21.080108 50.876738l-26.5067 26.479071 0 0.031722-121.982192 121.921817 0-0.059352-35.991726 35.988656c-14.130835 14.039761-32.30987 20.956288-50.786687 20.985964-18.662035-0.028653-36.775578-6.946202-50.904367-21.014616-14.193257-14.132882-21.017686-32.250518-21.017686-50.848085 0-18.631336 6.824429-36.625152 21.017686-50.873668l28.203342-28.022217c-28.084639-53.956889-21.503756-98.066503-11.656481-125.84722l-85.332481 85.178985c-32.850176 32.850176-49.51574 76.479859-49.458435 119.565143-0.057305 43.054585 16.551978 86.626963 49.458435 119.568213 32.911574 32.971949 76.57298 49.608861 119.689986 49.548486l0.119727 0c43.117007 0 86.476537-16.758686 119.388111-49.458435l184.481641-184.452989c32.969902-32.958646 49.635467-76.481905 49.52188-119.568213 0.113587-43.176358-16.614399-86.684268-49.52188-119.565143C629.455597 383.777687 622.869598 378.432958 616.168989 373.511879z" p-id="4678" ></path><path d="M812.12701 213.275431c-32.91669-33.031301-76.56684-49.580209-119.627565-49.549509l-0.186242 0c-43.050492 0-86.472444 16.756639-119.321596 49.399083l-184.482665 184.540993c-33.029254 32.940227-49.63956 76.391854-49.582255 119.53649-0.057305 43.178405 16.670681 86.74669 49.582255 119.627565 6.098905 6.040576 12.621459 11.414981 19.382443 16.365736l70.952982-71.01745c-7.725962-3.381004-15.157211-7.66661-21.618367-14.068414-14.192234-14.129812-21.010523-32.304753-21.072945-50.90846 0.062422-18.444071 6.880711-36.715203 21.072945-50.845015l145.295154-145.199986 5.194302-5.255701 33.93488-33.907251c14.187117-14.128789 32.367175-20.970614 50.847062-21.014616 18.533099 0.044002 36.713156 6.885827 50.900274 21.072945 14.07353 14.039761 20.958334 32.245402 20.958334 50.848085 0 18.568914-6.885827 36.625152-20.958334 50.785663l-28.198226 28.0478c28.084639 54.016241 21.49864 98.06855 11.656481 125.878942l85.269036-85.175915c32.906457-32.821523 49.573045-76.388784 49.52188-119.53649C861.700055 289.814642 845.095889 246.215658 812.12701 213.275431z" p-id="4679" ></path></svg>
