<svg t="1719543757129" class="icon" viewBox="0 0 1024 1024" version="1.1" xmlns="http://www.w3.org/2000/svg" p-id="2539" width="200" height="200"><path d="M925.64 340.39c-22.6-53.43-54.94-101.4-96.13-142.59s-89.17-73.53-142.59-96.13C631.59 78.26 572.83 66.4 512.28 66.4s-119.31 11.87-174.63 35.27c-53.43 22.6-101.4 54.94-142.59 96.13s-73.53 89.17-96.13 142.59c-23.4 55.33-35.27 114.08-35.27 174.63s11.87 119.31 35.27 174.63c22.6 53.43 54.94 101.4 96.13 142.59s89.17 73.53 142.59 96.13c55.33 23.4 114.08 35.27 174.63 35.27s119.31-11.87 174.63-35.27c53.43-22.6 101.4-54.94 142.59-96.13s73.53-89.17 96.13-142.59c23.4-55.33 35.27-114.08 35.27-174.63s-11.86-119.3-35.26-174.63zM512.28 899.65c-212.08 0-384.62-172.54-384.62-384.62S300.2 130.41 512.28 130.41 896.9 302.95 896.9 515.03c0.01 212.08-172.53 384.62-384.62 384.62z" p-id="2540"></path><path d="M717.31 311.71c-12.5-12.5-32.76-12.5-45.25 0L513.72 470.05 355.38 311.71c-12.5-12.5-32.76-12.5-45.25 0-12.5 12.5-12.5 32.76 0 45.25L468.47 515.3 310.13 673.65c-12.5 12.5-12.5 32.76 0 45.25 6.25 6.25 14.44 9.37 22.63 9.37s16.38-3.12 22.63-9.37l158.34-158.34L672.06 718.9c6.25 6.25 14.44 9.37 22.63 9.37s16.38-3.12 22.63-9.37c12.5-12.5 12.5-32.76 0-45.25L558.98 515.31l158.34-158.34c12.49-12.5 12.49-32.76-0.01-45.26z" p-id="2541"></path></svg>