<svg t="1697677508960" class="icon" viewBox="0 0 1024 1024" version="1.1" xmlns="http://www.w3.org/2000/svg" p-id="4954" width="200" height="200"><path d="M312.8 202.64h84.54v56.28H312.8z m-84.54 56.28H312.8v56.28H228.2z m84.54 56.28h84.54v56.28H312.8V315.2z m-84.54 56.22H312.8v56.28H228.2v-56.28z m84.54 56.28h84.54v56.28H312.8v-56.28z m-84.54 56.22H312.8v56.28H228.2z m84.54 56.22v56.28H228.2v196.86a28.14 28.14 0 0 0 28.2 28.14h112.74a28.14 28.14 0 0 0 28.2-28.14V540.14H312.8z m56.34 225H256.4v-56.28h112.74z" p-id="4955" ></path><path d="M879.5 217.28L744.5 86.3a212.52 212.52 0 0 0-127.5-54l-450 1.86A71.28 71.28 0 0 0 92 107.12v810a74.76 74.76 0 0 0 75 72.96l690 1.86A79.38 79.38 0 0 0 932 915.2V348.2a209.04 209.04 0 0 0-52.5-130.98z m-43.14 44.94c5.64 0 3.78 9.36 9.36 9.36l-153.78 1.86V118.1l11.28 9.36 133.14 132.84v1.86zM872 917.18c0 3.72-5.64 15-15 13.08l-690 1.86c-9.36-5.64-15-7.5-15-16.86V108.68c0-14.94 5.64-11.22 15-16.86l450 1.86c3.72-3.72 11.22 1.86 15-1.86V333.2l238.14-1.86c0 7.5 1.86 9.36 1.86 16.86z" p-id="4956" ></path></svg>