<svg t="1719543668333" class="icon" viewBox="0 0 1024 1024" version="1.1" xmlns="http://www.w3.org/2000/svg" p-id="2387" width="200" height="200"><path d="M928.39 336.56c-22.6-53.43-54.94-101.4-96.13-142.59s-89.17-73.53-142.59-96.13c-55.33-23.4-114.08-35.27-174.63-35.27S395.73 74.43 340.4 97.83c-53.43 22.6-101.4 54.94-142.59 96.13s-73.53 89.17-96.13 142.59c-23.4 55.33-35.27 114.08-35.27 174.63s11.87 119.31 35.27 174.63c22.6 53.43 54.94 101.4 96.13 142.59s89.17 73.53 142.59 96.13c55.33 23.4 114.08 35.27 174.63 35.27s119.31-11.87 174.63-35.27c53.43-22.6 101.4-54.94 142.59-96.13s73.53-89.17 96.13-142.59c23.4-55.33 35.27-114.08 35.27-174.63s-11.85-119.29-35.26-174.62zM515.04 895.82c-212.08 0-384.62-172.54-384.62-384.62s172.54-384.62 384.62-384.62S899.66 299.12 899.66 511.2c0 212.07-172.54 384.62-384.62 384.62z" p-id="2388"></path><path d="M748.71 346.16L450.79 644.08 279.61 472.91c-12.5-12.5-32.76-12.5-45.25 0-12.5 12.5-12.5 32.76 0 45.26l171.18 171.17c12.09 12.09 28.16 18.75 45.25 18.75 17.1 0 33.17-6.66 45.25-18.75l297.93-297.93c12.5-12.5 12.5-32.76 0-45.25-12.5-12.5-32.76-12.5-45.26 0z" p-id="2389"></path></svg>