<svg t="1719543971596" class="icon" viewBox="0 0 1024 1024" version="1.1" xmlns="http://www.w3.org/2000/svg" p-id="2693" width="200" height="200"><path d="M510.7 962.79h-0.67c-58.25-0.08-115.03-11.22-168.75-33.1-55.64-22.66-105.53-55.88-148.28-98.76s-75.84-92.86-98.33-148.57c-21.72-53.79-32.69-110.6-32.61-168.85 0.08-58.25 11.22-115.03 33.1-168.75 22.66-55.64 55.88-105.53 98.76-148.28s92.86-75.84 148.57-98.33c53.79-21.72 110.59-32.71 168.85-32.61 58.25 0.08 115.03 11.22 168.75 33.1 55.64 22.66 105.53 55.88 148.28 98.76s75.84 92.86 98.33 148.57c21.72 53.79 32.69 110.6 32.61 168.85-0.08 58.25-11.22 115.03-33.1 168.75-22.66 55.64-55.88 105.53-98.76 148.28s-92.86 75.84-148.57 98.33c-53.57 21.64-110.16 32.61-168.18 32.61z m-0.02-833.07c-98.31 0-196.62 37.34-271.57 112.08-150.18 149.75-150.53 393.76-0.79 543.94 72.54 72.75 169.07 112.9 271.81 113.05h0.57c102.53 0 198.94-39.85 271.56-112.26 72.75-72.54 112.9-169.07 113.05-271.81 0.15-102.74-39.72-199.38-112.26-272.13-75.01-75.23-173.69-112.87-272.37-112.87z" p-id="2694"></path><path d="M509.71 792.41m-40.25 0a40.25 40.25 0 1 0 80.5 0 40.25 40.25 0 1 0-80.5 0Z" p-id="2695"></path><path d="M509.98 672.91c-17.67 0-32-14.33-32-32V256.89c0-17.67 14.33-32 32-32s32 14.33 32 32V640.9c0 17.68-14.32 32.01-32 32.01z" p-id="2696"></path></svg>