<svg t="1718183314515" class="icon" viewBox="0 0 1024 1024" version="1.1" xmlns="http://www.w3.org/2000/svg" p-id="17309" width="200" height="200"><path d="M512.957695 417.189747a29.467537 29.467537 0 0 0-29.467537 29.467537v206.272758a29.467537 29.467537 0 0 0 58.935074 0v-206.272758a29.467537 29.467537 0 0 0-29.467537-29.467537z" p-id="17310"></path><path d="M512.957695 756.066421m-29.467537 0a29.467537 29.467537 0 1 0 58.935074 0 29.467537 29.467537 0 1 0-58.935074 0Z" p-id="17311"></path><path d="M946.5725 330.997202a24.016043 24.016043 0 0 0-0.515682-5.156819v-1.105033a23.868705 23.868705 0 0 0-1.178702-3.904448l-0.663019-1.620715a37.202765 37.202765 0 0 0-1.841721-3.315098l-0.736689-1.178701a24.679062 24.679062 0 0 0-3.094091-3.757111l-294.675369-302.042253-0.663019-0.589351a23.279354 23.279354 0 0 0-3.757111-2.873085l-1.326039-0.884026a27.625816 27.625816 0 0 0-3.241429-1.768052L633.55359 2.139491a29.467537 29.467537 0 0 0-4.935813-1.547046 22.100653 22.100653 0 0 0-5.451494-0.589351H165.756442a88.402611 88.402611 0 0 0-88.402611 88.402611v847.191684a88.402611 88.402611 0 0 0 88.402611 88.402611h692.487116a88.402611 88.402611 0 0 0 88.402611-88.402611V331.512884s-0.073669 0-0.073669-0.515682z m-294.675369-229.110099L847.193232 302.045347H681.438337a29.467537 29.467537 0 0 1-29.467537-29.467537zM887.711095 935.597389a29.467537 29.467537 0 0 1-29.467537 29.467537h-692.487116a29.467537 29.467537 0 0 1-29.467537-29.467537V88.405705a29.467537 29.467537 0 0 1 29.467537-29.467537h427.279284v213.639642a88.402611 88.402611 0 0 0 88.402611 88.402611h206.272758z" p-id="17312"></path><path d="M232.0584 243.110273h257.840947a29.467537 29.467537 0 0 0 0-58.935074h-257.840947a29.467537 29.467537 0 0 0 0 58.935074zM378.512058 375.714189H232.0584a29.467537 29.467537 0 0 0-29.467537 32.119615A30.498901 30.498901 0 0 0 233.605446 434.649263h144.906612a29.467537 29.467537 0 0 0 0-58.935074zM378.512058 567.253179H239.425284a29.467537 29.467537 0 0 0-29.467537 32.119615A30.498901 30.498901 0 0 0 240.97233 626.188252h137.539728a29.467537 29.467537 0 0 0 0-58.935073zM616.094074 596.720716a29.467537 29.467537 0 0 0 29.467537 29.467536h123.026966a30.351563 30.351563 0 0 0 30.57257-26.594452 29.467537 29.467537 0 0 0-29.467537-32.340621H645.561611a29.467537 29.467537 0 0 0-29.467537 29.467537zM378.512058 758.792168H239.425284a29.467537 29.467537 0 0 0-29.467537 32.119615 30.498901 30.498901 0 0 0 31.014583 26.815459h137.539728a29.467537 29.467537 0 0 0 0-58.935074zM768.588577 758.792168h-123.026966a29.467537 29.467537 0 0 0 0 58.935074h124.279337a29.467537 29.467537 0 0 0 29.467536-32.340622 30.351563 30.351563 0 0 0-30.719907-26.594452z" p-id="17313"></path></svg>