<svg t="1680056998707" class="icon" viewBox="0 0 1211 1024" version="1.1" xmlns="http://www.w3.org/2000/svg" p-id="20663" width="200" height="200"><path d="M131.45833333 215.12500024a37.2023811 37.2023811 0 0 1 37.2023811-37.2023811h669.6428574a37.2023811 37.2023811 0 0 1 0 74.40476221h-669.6428574a37.2023811 37.2023811 0 0 1-37.2023811-37.20238111zM131.45833333 512.74404742a37.2023811 37.2023811 0 0 1 37.2023811-37.2023811h669.6428574a37.2023811 37.2023811 0 0 1 0 74.4047622h-669.6428574a37.2023811 37.2023811 0 0 1-37.2023811-37.2023811zM131.45833333 810.36309543a37.2023811 37.2023811 0 0 1 37.2023811-37.2023811h669.6428574a37.2023811 37.2023811 0 0 1 0 74.4047622h-669.6428574a37.2023811 37.2023811 0 0 1-37.2023811-37.2023811zM987.11309541 90.125a37.2023811 37.2023811 0 0 1 37.2023811 37.2023811v769.3452378a37.2023811 37.2023811 0 0 1-74.4047622 0V127.3273811a37.2023811 37.2023811 0 0 1 37.2023811-37.2023811z" p-id="20664"></path><path d="M1118.80952413 764.97619018a37.94642852 37.94642852 0 0 1 0 52.82738114l-105.65476228 104.91071402a36.83035739 36.83035739 0 0 1-52.08333287-52.08333288l104.91071401-105.65476228a37.94642852 37.94642852 0 0 1 52.82738114 0z" p-id="20665"></path></svg>