<svg t="1697677416773" class="icon" viewBox="0 0 1024 1024" version="1.1" xmlns="http://www.w3.org/2000/svg" p-id="4310" width="200" height="200"><path d="M512 69.818182c-257.070545 0-465.454545 208.384-465.454545 465.454545 0 257.070545 208.384 465.454545 465.454545 465.454545 257.070545 0 465.454545-208.384 465.454545-465.454545C977.454545 278.202182 769.070545 69.818182 512 69.818182zM512 954.181818c-231.377455 0-418.909091-187.531636-418.909091-418.909091 0-231.377455 187.531636-418.909091 418.909091-418.909091s418.909091 187.531636 418.909091 418.909091C930.909091 766.603636 743.377455 954.181818 512 954.181818zM775.261091 414.114909l-161.512727-15.034182-85.736727-154.810182c-2.746182-7.028364-9.076364-11.589818-16.058182-11.589818-6.981818 0-13.312 4.561455-16.058182 11.589818L409.227636 399.080727l-160.581818 15.034182C241.570909 414.72 235.613091 419.933091 233.425455 427.333818 231.284364 434.688 233.378909 442.786909 238.778182 447.767273l126.370909 132.794182L321.629091 767.813818c-1.629091 7.493818 0.977455 15.313455 6.656 19.874909 5.678545 4.561455 13.218909 4.980364 19.269818 1.024l164.445091-102.632727 164.864 102.632727c2.746182 1.815273 5.864727 2.699636 8.936727 2.699636 3.630545 0 7.261091-1.256727 10.333091-3.723636 5.632-4.561455 8.285091-12.381091 6.609455-19.874909l-45.149091-188.090182 127.534545-131.956364c5.399273-4.980364 7.493818-13.079273 5.352727-20.433455C788.293818 419.933091 782.289455 414.72 775.261091 414.114909zM716.846545 467.456l-95.650909 103.330909 33.885091 133.073455c1.210182 5.585455-0.744727 11.496727-4.980364 14.894545-2.280727 1.861818-5.026909 2.792727-7.773091 2.792727-2.280727 0-4.608-0.698182-6.702545-2.001455l-124.369455-76.986182L388.654545 719.546182c-4.561455 2.978909-10.193455 2.653091-14.429091-0.744727-4.235636-3.444364-6.190545-9.309091-4.980364-14.894545l32.628364-132.468364-94.766545-103.982545c-4.049455-3.770182-5.632-9.821091-4.002909-15.36 1.629091-5.538909 6.097455-9.448727 11.403636-9.914182l111.709091-14.894545 73.728-116.130909C501.992727 305.896727 506.740364 302.498909 512 302.498909c5.259636 0 9.960727 3.444364 12.008727 8.704l73.029818 116.130909 112.407273 14.894545c5.259636 0.465455 9.774545 4.375273 11.403636 9.914182C722.478545 457.634909 720.896 463.732364 716.846545 467.456z" p-id="4311"></path></svg>