<svg t="1697676923094" class="icon" viewBox="0 0 1024 1024" version="1.1" xmlns="http://www.w3.org/2000/svg" p-id="2271" id="mx_n_1697676923095" width="200" height="200"><path d="M950.60574815 241.664H780.45487408V80.4575763a37.17347555 37.17347555 0 0 0-37.13706667-37.13706667H94.13518222a37.17347555 37.17347555 0 0 0-37.13706667 37.13706667v649.18262518a37.17347555 37.17347555 0 0 0 37.13706667 37.13706667H264.29819259v161.2064237a37.17347555 37.17347555 0 0 0 37.13706666 37.13706667h649.1704889a37.17347555 37.17347555 0 0 0 37.13706667-37.13706667V278.80106667a37.17347555 37.17347555 0 0 0-37.13706667-37.13706667zM126.90318222 696.87220148V113.2255763h583.65876148v128.4384237H301.43525925a37.17347555 37.17347555 0 0 0-37.13706666 37.13706667v418.07113481z m583.65876148-385.30313481v385.30313481H334.20325925V311.56906667z m207.28794075 583.64662518H334.20325925V766.77726815h409.11454816a37.17347555 37.17347555 0 0 0 37.13706667-37.13706667V311.56906667h137.39501037z" p-id="2272"></path></svg>