<svg t="1729561435761" class="icon" viewBox="0 0 1024 1024" version="1.1" xmlns="http://www.w3.org/2000/svg" p-id="3310" width="200" height="200"><path d="M672.426667 954.026667H165.546667c-37.546667 0-68.266667-30.72-68.266667-68.266667V421.546667c0-37.546667 30.72-68.266667 68.266667-68.266667h506.88c37.546667 0 68.266667 30.72 68.266666 68.266667v464.213333c0 37.546667-30.72 68.266667-68.266666 68.266667z" opacity=".3" p-id="3311"></path><path d="M858.453333 989.866667H165.546667c-51.2 0-92.16-40.96-92.16-92.16V126.293333c0-51.2 40.96-92.16 92.16-92.16h501.76c6.826667 0 11.946667 1.706667 17.066666 6.826667l259.413334 235.52c5.12 5.12 8.533333 11.946667 8.533333 18.773333v600.746667c0 52.906667-42.666667 93.866667-93.866667 93.866667zM165.546667 85.333333C141.653333 85.333333 122.88 104.106667 122.88 126.293333v769.706667c0 22.186667 18.773333 40.96 40.96 40.96h694.613333c22.186667 0 40.96-18.773333 40.96-40.96V307.2L657.066667 85.333333H165.546667z" p-id="3312"></path><path d="M653.653333 747.52c-6.826667 0-13.653333-1.706667-18.773333-6.826667L351.573333 455.68c-10.24-10.24-10.24-25.6 0-35.84s25.6-10.24 35.84 0l285.013334 285.013333c10.24 10.24 10.24 25.6 0 35.84-5.12 3.413333-11.946667 6.826667-18.773334 6.826667z" p-id="3313"></path><path d="M370.346667 747.52c-6.826667 0-13.653333-1.706667-18.773334-6.826667-10.24-10.24-10.24-25.6 0-35.84l285.013334-285.013333c10.24-10.24 25.6-10.24 35.84 0s10.24 25.6 0 35.84L387.413333 738.986667c-5.12 5.12-10.24 8.533333-17.066666 8.533333z" p-id="3314"></path><path d="M921.6 320.853333h-162.133333c-63.146667 0-116.053333-51.2-116.053334-116.053333V63.146667c0-10.24 6.826667-18.773333 15.36-23.893334 8.533333-3.413333 20.48-1.706667 27.306667 5.12L938.666667 276.48c8.533333 6.826667 10.24 18.773333 6.826666 27.306667-3.413333 11.946667-13.653333 17.066667-23.893333 17.066666zM696.32 122.88v83.626667c0 35.84 29.013333 64.853333 64.853333 64.853333h95.573334l-160.426667-148.48z" p-id="3315"></path></svg>