<?xml version="1.0" standalone="no"?><!DOCTYPE svg PUBLIC "-//W3C//DTD SVG 1.1//EN" "http://www.w3.org/Graphics/SVG/1.1/DTD/svg11.dtd"><svg t="1725609301395" class="icon" viewBox="0 0 1024 1024" version="1.1" xmlns="http://www.w3.org/2000/svg" p-id="11836" xmlns:xlink="http://www.w3.org/1999/xlink" width="200" height="200"><path d="M482.6 883H199.3c-23.3 0-42.2-20.3-42.2-45.3V273c0-25 18.9-45.3 42.2-45.3h51.2c1.1 0 2.1-0.2 3.1-0.3 14.2 42.4 54.2 73.1 101.4 73.1h259.4c47.2 0 87.3-30.8 101.4-73.4 1.8 0.3 3.6 0.6 5.5 0.6h44.3c25.7 0 46.7 19.4 46.7 43.2V503c0 20.1 16.3 36.4 36.4 36.4 20.1 0 36.4-16.3 36.4-36.4V271c0-64-53.6-116-119.5-116h-44.3c-0.4 0-0.9 0.1-1.3 0.1-7.7-51.5-52.1-91.1-105.6-91.1H355c-53.5 0-97.9 39.6-105.6 91h-50.1c-63.4 0-115 53-115 118.1v564.7c0 65.1 51.6 118.1 115 118.1h283.3c20.1 0 36.4-16.3 36.4-36.4 0-20.2-16.3-36.5-36.4-36.5zM320.9 170.9c0-18.8 15.3-34.1 34.1-34.1h259.4c18.8 0 34.1 15.3 34.1 34.1v22.8c0 18.8-15.3 34.1-34.1 34.1H355c-18.8 0-34.1-15.3-34.1-34.1v-22.8z" p-id="11837" fill="#1890FF"></path><path d="M757.7 409.8c0-20.1-16.3-36.4-36.4-36.4H248.1c-20.1 0-36.4 16.3-36.4 36.4 0 20.1 16.3 36.4 36.4 36.4h473.2c20.1 0 36.4-16.3 36.4-36.4zM248.1 537.2c-20.1 0-36.4 16.3-36.4 36.4 0 20.1 16.3 36.4 36.4 36.4h436.8c20.1 0 36.4-16.3 36.4-36.4 0-20.1-16.3-36.4-36.4-36.4H248.1zM557.5 737.4c0-20.1-16.3-36.4-36.4-36.4h-273c-20.1 0-36.4 16.3-36.4 36.4 0 20.1 16.3 36.4 36.4 36.4h273c20.1 0 36.4-16.3 36.4-36.4zM921.8 624.7l-37.4-37.4c-26.2-26.2-69.2-25.6-96 1.1L587.6 789.2c-17.8 17.9-29.9 41.2-34 65.8l-7.4 44.6c-2.7 16.5 2.7 33.4 14.5 45.2 9.8 9.8 23.1 15.2 36.8 15.2 2.8 0 5.7-0.2 8.5-0.7l44.6-7.4c25-4.2 47.7-15.9 65.8-34L921 713.2c11.7-11.7 18.4-27.2 18.8-43.6 0.3-17-6-32.9-18-44.9z m-257 241.8c-7.2 7.2-16.5 12-26.3 13.7l-15.8 2.6 2.6-15.8c1.6-9.7 6.5-19.1 13.7-26.3l198-197.9 25.7 25.8-197.9 197.9z" p-id="11838" fill="#1890FF"></path></svg>