<svg t="1677656937773" class="icon" viewBox="0 0 1024 1024" version="1.1" xmlns="http://www.w3.org/2000/svg" p-id="6959" width="200" height="200"><path d="M808.116706 436.705882H342.211765l0.105411-178.567529c0-94.960941 67.087059-170.556235 158.08753-170.556235 91.979294 0 157.153882 72.342588 157.153882 169.878588v88.018823c0 23.657412 20.193882 43.640471 44.468706 43.640471 16.986353 0 37.225412-12.167529 46.757647-33.400471 0 0 3.538824-8.583529 3.538824-11.821176l0.015059-86.934588C752.353882 113.091765 643.644235 0 504.726588 0c-138.420706 0-248.410353 112.745412-250.413176 253.590588-0.316235 6.159059-0.572235 122.88-0.692706 183.115294h-60.626824c-44.815059 0-77.552941 31.488-77.552941 76.303059v427.956706c0 44.815059 32.737882 83.019294 77.552941 83.019294h615.107765c44.815059 0 90.398118-38.204235 90.398118-83.019294V513.008941C898.514824 468.193882 852.931765 436.705882 808.116706 436.705882zM567.356235 757.729882c-4.894118 3.011765-0.135529 8.854588-0.135529 8.854589v26.729411c0 18.928941-20.916706 34.906353-40.026353 34.906353h-26.699294c-18.853647 0-23.627294-15.36-23.627294-34.906353v-29.108706s-2.710588-4.894118-6.475294-8.493176c-19.049412-16.579765-30.343529-35.749647-30.34353-55.853176 0-40.086588 34.936471-73.953882 77.040941-73.953883 40.357647 0 75.158588 33.174588 75.158589 73.953883-0.015059 21.594353-0.301176 43.655529-24.892236 57.871058z" p-id="6960" ></path></svg>
