<svg t="1697676975932" class="icon" viewBox="0 0 1024 1024" version="1.1" xmlns="http://www.w3.org/2000/svg" p-id="2525" id="mx_n_1697676975933" width="200" height="200"><path d="M750.11413333 429.47318518c0-20.75306667-15.89854815-37.62251852-35.43798518-37.62251851H274.61404445c-19.53943703 0-35.43798518 16.86945185-35.4379852 37.62251851s15.89854815 37.62251852 35.4379852 37.62251852H714.67614815c19.29671111 0 35.19525925-16.86945185 35.43798518-37.62251852zM274.12859259 534.9376c-19.53943703 0-35.43798518 16.86945185-35.43798518 37.62251852s15.89854815 37.62251852 35.43798518 37.62251851h173.6704c19.41807408 0 35.31662222-16.86945185 35.43798519-37.62251851 0-20.75306667-15.89854815-37.62251852-35.43798519-37.62251852H274.12859259zM714.67614815 237.11288889H274.61404445c-19.53943703 0-35.43798518 16.86945185-35.4379852 37.62251852s15.89854815 37.62251852 35.4379852 37.62251851H714.67614815c19.41807408 0 35.31662222-16.86945185 35.43798518-37.62251851 0-20.75306667-15.89854815-37.62251852-35.43798518-37.62251852zM919.90091852 616.00805925c-16.50536297-11.89357037-39.68568889-8.25268148-51.70062222 8.13131853L674.38364445 890.28835555l-108.37712593-92.7213037c-15.65582222-13.22856297-39.07887408-11.40811852-52.18607407 4.12634074-13.22856297 15.53445925-11.40811852 38.95751111 4.12634073 52.18607408l138.71786667 118.9357037c6.5536 5.70405925 15.17037037 8.8594963 24.02986667 8.8594963 1.45635555 0 2.79134815-0.12136297 4.36906666-0.36408889 10.31585185-1.09226667 19.6608-6.5536 25.72894815-14.92764445l-0.48545185-0.36408888 217.48242963-298.5528889 0.48545186 0.3640889c11.77220741-16.62672592 8.13131852-39.80705185-8.37404445-51.8219852z" p-id="2526"></path><path d="M517.21860741 925.24088889H161.74648889s-0.12136297-0.12136297-0.12136297 0V98.88047408s0.12136297-0.12136297 0-0.12136297h688.00663705s0.12136297 0.12136297 0.12136295 0V531.41807408c0 20.14625185 16.26263703 36.40888889 36.4088889 36.40888889s36.40888889-16.26263703 36.40888888-36.40888889V98.75911111c0-40.17114075-32.64663703-72.81777778-72.81777778-72.81777778h-688.128c-40.17114075 0-72.81777778 32.64663703-72.81777777 72.81777778v826.48177778c0 40.17114075 32.64663703 72.81777778 72.81777777 72.81777778h355.59348149c20.14625185 0 36.40888889-16.26263703 36.40888889-36.40888889s-16.26263703-36.40888889-36.40888889-36.40888889z"  p-id="2527"></path></svg>