<svg t="1697677123653" class="icon" viewBox="0 0 1024 1024" version="1.1" xmlns="http://www.w3.org/2000/svg" p-id="3154" width="200" height="200"><path d="M921.6 102.4H102.4a68.26666667 68.26666667 0 0 0-68.26666667 68.26666667v716.8a68.26666667 68.26666667 0 0 0 68.26666667 68.26666666h819.2a68.26666667 68.26666667 0 0 0 68.26666667-68.26666666V170.66666667a68.26666667 68.26666667 0 0 0-68.26666667-68.26666667z m0 68.26666667v125.50826666l-402.60266667 272.31573334L102.4 286.68586667V170.66666667h819.2zM102.4 887.46666667V369.11786667l397.48266667 268.83413333a34.0992 34.0992 0 0 0 38.22933333 0L921.6 378.5728V887.46666667H102.4z"  p-id="3155"></path></svg>