<svg xmlns="http://www.w3.org/2000/svg" viewBox="0 0 24 24" class="design-iconfont">
  <path d="M12,0 C5.31428571,0 0,5.31428571 0,12 C0,18.6857143 5.31428571,24 12,24 C18.6857143,24 24,18.6857143 24,12 C24,5.31428571 18.6857143,0 12,0 Z M13.3714286,19.2 C13.3714286,20.0571429 12.8571429,20.5714286 12,20.5714286 C11.1428571,20.5714286 10.6285714,20.0571429 10.6285714,19.2 L10.6285714,11.3142857 C10.6285714,10.4571429 11.1428571,9.94285714 12,9.94285714 C12.8571429,9.94285714 13.3714286,10.4571429 13.3714286,11.3142857 L13.3714286,19.2 Z M14.0571429,6.17142857 C14.0571429,7.37142857 13.0285714,8.22857143 12,8.22857143 C10.9714286,8.22857143 9.94285714,7.37142857 9.94285714,6.17142857 C9.94285714,4.97142857 10.8,3.94285714 12,3.94285714 C13.2,3.94285714 14.0571429,4.97142857 14.0571429,6.17142857 Z" fill="#FF3600" fill-rule="nonzero"/>
</svg>
