<svg t="1697676762740" class="icon" viewBox="0 0 1024 1024" version="1.1" xmlns="http://www.w3.org/2000/svg" p-id="1698" width="200" height="200"><path d="M182.00023789 62.00022852a43.17185302 43.17185302 0 0 0-31.49998418 13.49999296C142.25084404 84.5002171 137.00113964 95.75021094 137.00113964 107.00020567v809.99958866a43.17185302 43.17185302 0 0 0 13.49999298 31.49998419 44.42517247 44.42517247 0 0 0 31.49998418 13.49999296h659.99849326a43.17185302 43.17185302 0 0 0 31.49998329-13.49999296 44.42605137 44.42605137 0 0 0 13.49999386-31.49998419V317.00068526L632.00000938 62.00022852z"  p-id="1699"></path><path d="M886.99958721 316.99980635H676.99998652a46.13640205 46.13640205 0 0 1-44.99997715-44.99997715V62.00022852z" fill="#fff" p-id="1700"></path><path d="M456.20302871 580.68648828L290.5872919 354.67586123h114.47220761l108.35590254 161.78019082L626.7397581 354.67586123h110.82299063L568.20814737 580.68648828l177.80791727 240.46159659H630.40040088l-119.4520878-171.43057706L391.80120576 822.25374893H278.43817695z" fill="#ffffff" p-id="1701"></path></svg>