<svg t="1678246180141" class="icon" viewBox="0 0 1024 1024" version="1.1" xmlns="http://www.w3.org/2000/svg" p-id="19701" width="200" height="200"><path d="M147.3 353.1h-33v-33c0-6.1-4.9-11-11-11s-11 4.9-11 11v33h-33c-6.1 0-11 4.9-11 11s4.9 11 11 11h33v33c0 6.1 4.9 11 11 11s11-4.9 11-11v-33h33c6.1 0 11-4.9 11-11s-4.9-11-11-11z" fill="#F70000" p-id="19702"></path><path d="M145.8 489.5c-5-5-13.1-5-18.1 0l-3.9 3.9-3.9-3.9c-5-5-13.1-5-18.1 0-5 5-5 13.1 0 18.1l13 13c5 5 13.1 5 18.1 0l13-13c4.9-5 4.9-13.1-0.1-18.1z" fill="#F70000" opacity=".47" p-id="19703"></path><path d="M748.7 851.1c-0.3-9.9-8.7-17.7-18.6-17.3l-7.7 0.3-0.3-7.7c-0.3-9.9-8.7-17.7-18.6-17.3-9.9 0.3-17.7 8.7-17.3 18.6l0.9 25.7c0.3 9.9 8.7 17.7 18.6 17.3l25.7-0.9c9.8-0.5 17.6-8.8 17.3-18.7z" fill="#F70000" p-id="19704"></path><path d="M327.2 212.7c-15.2 0-27.5-12.3-27.5-27.5s12.3-27.5 27.5-27.5 27.5 12.3 27.5 27.5-12.4 27.5-27.5 27.5z m0-44c-9.1 0-16.5 7.4-16.5 16.5s7.4 16.5 16.5 16.5 16.5-7.4 16.5-16.5-7.5-16.5-16.5-16.5z" fill="#F70000" opacity=".47" p-id="19705"></path><path d="M293.2 300.7h551.5c1.4 0 2.3 1.5 1.6 2.7L569.6 794.9c-0.3 0.5-0.9 0.5-1.2 0L291.7 303.4c-0.7-1.2 0.1-2.7 1.5-2.7z" fill="#F70000" opacity=".47" p-id="19706"></path><path d="M398.6 432.6c-3.9 0-7.6-2-9.6-5.6l-34.1-61.1c-3-5.3-1.1-12 4.3-15 5.3-3 12-1.1 15 4.2l34.1 61.1c3 5.3 1.1 12-4.3 15-1.7 0.9-3.6 1.4-5.4 1.4z" fill="#FFFFFF" p-id="19707"></path><path d="M829.1 300.7h-38.9l-250 444 28.9 51.3 269.5-479c4.2-7.3-1.1-16.3-9.5-16.3z" fill="#F70000" opacity=".57" p-id="19708"></path><path d="M401.4 267.7h-27.5c-6.1 0-11-4.9-11-11s4.9-11 11-11h27.5c6.1 0 11 4.9 11 11s-5 11-11 11z" p-id="19709"></path><path d="M536 851.7c-7.9 0-15.3-4.3-19.2-11.2L202 281.5c-4.2-7.5-4.2-16.5 0.2-23.9 4.4-7.5 12.1-11.9 20.7-11.9h108.6c6.1 0 11 4.9 11 11s-4.9 11-11 11H223c-0.8 0-1.4 0.3-1.8 1-0.4 0.7-0.4 1.4 0 2l314.8 559 315.4-560.2c0.1-0.2 0.3-0.6 0-1.2-0.4-0.6-0.9-0.6-1.1-0.6H447.4c-6.1 0-11-4.9-11-11s4.9-11 11-11h402.9c8.3 0 15.8 4.3 20 11.5 4.2 7.2 4.3 15.8 0.2 23.1L555.2 840.5c-3.9 6.9-11.3 11.2-19.2 11.2z" p-id="19710"></path><path d="M178.8 245.7m-33 0a33 33 0 1 0 66 0 33 33 0 1 0-66 0Z" fill="#F70000" p-id="19711"></path><path d="M178.8 289.7c-24.2 0-44-19.7-44-44s19.7-44 44-44 44 19.7 44 44-19.8 44-44 44z m0-66c-12.1 0-22 9.9-22 22s9.9 22 22 22 22-9.9 22-22-9.9-22-22-22z" p-id="19712"></path><path d="M893.3 245.7m-33 0a33 33 0 1 0 66 0 33 33 0 1 0-66 0Z" fill="#F70000" p-id="19713"></path><path d="M893.3 289.7c-24.2 0-44-19.7-44-44s19.7-44 44-44c24.2 0 44 19.7 44 44s-19.8 44-44 44z m0-66c-12.1 0-22 9.9-22 22s9.9 22 22 22 22-9.9 22-22-9.9-22-22-22zM224.1 388.4c-0.9 0-1.8-0.1-2.7-0.3-5.9-1.5-9.4-7.5-7.9-13.4l13.5-52.4c1.5-5.9 7.5-9.4 13.4-7.9s9.4 7.5 7.9 13.4l-13.5 52.4c-1.3 4.9-5.8 8.2-10.7 8.2zM255.2 444.4c-0.9 0-1.8-0.1-2.7-0.3-5.9-1.5-9.4-7.5-7.9-13.4l13.5-52.4c1.5-5.9 7.5-9.4 13.4-7.9s9.4 7.5 7.9 13.4l-13.5 52.4c-1.4 4.9-5.8 8.2-10.7 8.2zM286.2 500.5c-0.9 0-1.8-0.1-2.7-0.3-5.9-1.5-9.4-7.5-7.9-13.4l13.5-52.4c1.5-5.9 7.5-9.4 13.4-7.9s9.4 7.5 7.9 13.4l-13.5 52.4c-1.3 4.9-5.8 8.2-10.7 8.2zM316.9 556.6c-0.9 0-1.8-0.1-2.7-0.3-5.9-1.5-9.4-7.5-7.9-13.4l13.5-52.4c1.5-5.9 7.5-9.4 13.4-7.9s9.4 7.5 7.9 13.4l-13.5 52.4c-1.4 4.9-5.8 8.2-10.7 8.2zM347.9 612.7c-0.9 0-1.8-0.1-2.7-0.3-5.9-1.5-9.4-7.5-7.9-13.4l13.5-52.4c1.5-5.9 7.5-9.4 13.4-7.9s9.4 7.5 7.9 13.4l-13.5 52.4c-1.3 4.9-5.8 8.2-10.7 8.2zM378.9 668.8c-0.9 0-1.8-0.1-2.7-0.3-5.9-1.5-9.4-7.5-7.9-13.4l13.5-52.4c1.5-5.9 7.5-9.4 13.4-7.9s9.4 7.5 7.9 13.4l-13.5 52.4c-1.3 4.9-5.8 8.2-10.7 8.2zM410 724.8c-0.9 0-1.8-0.1-2.7-0.3-5.9-1.5-9.4-7.5-7.9-13.4l13.5-52.4c1.5-5.9 7.5-9.4 13.4-7.9s9.4 7.5 7.9 13.4l-13.5 52.4c-1.3 4.9-5.8 8.2-10.7 8.2zM441 780.9c-0.9 0-1.8-0.1-2.7-0.3-5.9-1.5-9.4-7.5-7.9-13.4l13.5-52.4c1.5-5.9 7.5-9.4 13.4-7.9s9.4 7.5 7.9 13.4l-13.5 52.4c-1.3 4.9-5.8 8.2-10.7 8.2zM480.7 843.7c-0.8 0-1.6-0.1-2.4-0.3-5.9-1.3-9.7-7.2-8.4-13.1l11.6-52.8c1.3-5.9 7.2-9.7 13.1-8.4 5.9 1.3 9.7 7.2 8.4 13.1L491.4 835c-1.1 5.2-5.6 8.7-10.7 8.7z" p-id="19714"></path><path d="M591.3 843.7c-5 0-9.6-3.5-10.7-8.6L569 782.3c-1.3-5.9 2.4-11.8 8.4-13.1 5.9-1.3 11.8 2.4 13.1 8.4l11.6 52.8c1.3 5.9-2.4 11.8-8.4 13.1-0.8 0.2-1.6 0.2-2.4 0.2zM631.4 780.9c-4.9 0-9.4-3.3-10.6-8.3l-13.5-52.4c-1.5-5.9 2-11.9 7.9-13.4s11.9 2 13.4 7.9l13.5 52.4c1.5 5.9-2 11.9-7.9 13.4-1 0.3-1.9 0.4-2.8 0.4zM662.4 724.8c-4.9 0-9.4-3.3-10.6-8.3l-13.5-52.4c-1.5-5.9 2-11.9 7.9-13.4s11.9 2 13.4 7.9l13.5 52.4c1.5 5.9-2 11.9-7.9 13.4-0.9 0.3-1.9 0.4-2.8 0.4zM693.1 668.8c-4.9 0-9.4-3.3-10.6-8.3L669 608.1c-1.5-5.9 2-11.9 7.9-13.4s11.9 2 13.4 7.9l13.5 52.4c1.5 5.9-2 11.9-7.9 13.4-1 0.3-1.9 0.4-2.8 0.4zM724.1 612.7c-4.9 0-9.4-3.3-10.6-8.3L700 552c-1.5-5.9 2-11.9 7.9-13.4s11.9 2 13.4 7.9l13.5 52.4c1.5 5.9-2 11.9-7.9 13.4-0.9 0.3-1.9 0.4-2.8 0.4zM755.2 556.6c-4.9 0-9.4-3.3-10.6-8.3l-13.5-52.4c-1.5-5.9 2-11.9 7.9-13.4s11.9 2 13.4 7.9l13.5 52.4c1.5 5.9-2 11.9-7.9 13.4-1 0.3-1.9 0.4-2.8 0.4zM786.2 500.5c-4.9 0-9.4-3.3-10.6-8.3l-13.5-52.4c-1.5-5.9 2-11.9 7.9-13.4s11.9 2 13.4 7.9l13.5 52.4c1.5 5.9-2 11.9-7.9 13.4-1 0.3-1.9 0.4-2.8 0.4zM817.3 444.4c-4.9 0-9.4-3.3-10.6-8.3l-13.5-52.4c-1.5-5.9 2-11.9 7.9-13.4s11.9 2 13.4 7.9l13.5 52.4c1.5 5.9-2 11.9-7.9 13.4-1 0.3-1.9 0.4-2.8 0.4zM847.9 388.4c-4.9 0-9.4-3.3-10.6-8.3l-13.5-52.4c-1.5-5.9 2-11.9 7.9-13.4s11.9 2 13.4 7.9l13.5 52.4c1.5 5.9-2 11.9-7.9 13.4-1 0.3-1.9 0.4-2.8 0.4z" p-id="19715"></path><path d="M563.5 531.5c-6.1 0-11-4.9-11-11V388.6c0-6.1 4.9-11 11-11s11 4.9 11 11v131.9c0 6.1-4.9 11-11 11z" p-id="19716"></path><path d="M629.5 465.6h-132c-6.1 0-11-4.9-11-11s4.9-11 11-11h131.9c6.1 0 11 4.9 11 11s-4.9 11-10.9 11z" p-id="19717"></path></svg>
