<svg t="1700637908890" class="icon" viewBox="0 0 1024 1024" version="1.1" xmlns="http://www.w3.org/2000/svg" p-id="4090" width="200" height="200"><path d="M924.8 380.8V262.4c0-38.4-32-70.4-70.4-70.4H457.6l-25.6-76.8c-9.6-28.8-38.4-51.2-67.2-51.2H105.6C67.2 64 35.2 96 35.2 134.4V902.4c3.2 9.6 9.6 19.2 19.2 28.8l3.2 3.2 6.4 9.6 3.2 3.2c9.6 6.4 22.4 9.6 32 12.8h726.4c32 0 60.8-22.4 70.4-54.4l92.8-428.8c9.6-38.4-12.8-76.8-51.2-86.4-6.4-3.2-9.6-9.6-12.8-9.6zM105.6 134.4h259.2l41.6 128h448v118.4H198.4c-32 0-60.8 22.4-70.4 54.4l-22.4 121.6V134.4z m720 752H105.6l92.8-428.8h720l-92.8 428.8z" p-id="4091"></path></svg>