<svg  t="1671415371412" class="icon" viewBox="0 0 1024 1024" version="1.1" p-id="3773" width="24" height="24" xmlns="http://www.w3.org/2000/svg"><path d="M853.333333 656.410256h-682.666666a52.512821 52.512821 0 0 1-52.512821-52.51282v-157.538462a52.512821 52.512821 0 0 1 52.512821-52.51282h210.051282v-315.076923a52.512821 52.512821 0 0 1 52.51282-52.512821h157.538462a52.512821 52.512821 0 0 1 52.51282 52.512821v315.076923h210.051282a52.512821 52.512821 0 0 1 52.512821 52.51282v157.538462a52.512821 52.512821 0 0 1-52.512821 52.51282z m0-210.051282h-262.564102v-367.589743h-157.538462v367.589743h-262.564102v157.538462h682.666666v-157.538462z" fill="#179bfe" p-id="3774"/><path d="M170.666667 603.897436v-157.538462h262.564102v-367.589743h157.538462v367.589743h262.564102v157.538462h-682.666666z" fill="#F6F7F8" p-id="3775"/><path d="M170.666667 656.410256h682.666666v367.589744h-682.666666z" fill="#F6F7F8" p-id="3776"/><path d="M853.333333 1024h-682.666666a52.512821 52.512821 0 0 1-52.512821-52.512821v-315.076923a52.512821 52.512821 0 0 1 52.512821-52.51282h682.666666a52.512821 52.512821 0 0 1 52.512821 52.51282v315.076923a52.512821 52.512821 0 0 1-52.512821 52.512821z m0-367.589744h-682.666666v315.076923h105.025641V840.205128a26.25641 26.25641 0 0 1 52.51282 0v131.282051h157.538462V787.692308a26.25641 26.25641 0 0 1 52.51282 0v183.794871h157.538462V840.205128a26.25641 26.25641 0 0 1 52.51282 0v131.282051h105.025641v-315.076923z" fill="#179bfe" p-id="3777"/></svg>