<svg t="1679118292323" class="icon" viewBox="0 0 1024 1024" version="1.1" xmlns="http://www.w3.org/2000/svg" p-id="8833" width="200" height="200"><path d="M870.4 438.272a35.328 35.328 0 0 0-28.672-24.064l-204.8-35.328-92.672-180.224a36.352 36.352 0 0 0-64 0L388.608 378.88l-204.8 36.352a35.328 35.328 0 0 0-30.208 24.064 34.304 34.304 0 0 0 9.216 35.84L312.32 609.28l-38.4 194.56a34.816 34.816 0 0 0 14.336 34.304 39.424 39.424 0 0 0 37.888 2.56L512 751.616l185.344 89.088a36.352 36.352 0 0 0 37.888-2.56 34.816 34.816 0 0 0 14.336-34.304l-37.376-194.56 147.968-135.168a34.304 34.304 0 0 0 10.24-35.84z"  p-id="8834"></path></svg>
