<svg t="1701744352026" class="icon" viewBox="0 0 1024 1024" version="1.1" xmlns="http://www.w3.org/2000/svg" p-id="4247" width="200" height="200"><path d="M641.706667 892.928c-87.381333-87.381333-87.381333-229.376 0-316.757333 41.301333-41.301333 96.597333-64.853333 154.965333-65.536H897.706667l-68.949334 141.994666L771.413333 624.64l24.234667-49.834667c-40.618667 1.024-79.530667 17.749333-108.544 46.762667-62.464 62.464-62.464 163.84 0 226.304L641.706667 892.928zM748.202667 958.464h-55.978667l80.213333-136.874667 55.296 32.426667-23.552 40.277333c47.786667-1.024 83.626667-13.653333 109.226667-39.594666 30.037333-30.037333 46.762667-70.314667 46.762667-112.981334s-16.725333-82.602667-46.762667-112.981333l45.056-45.397333c42.325333 42.325333 65.536 98.304 65.536 158.037333 0 59.733333-23.210667 116.053333-65.536 158.037333-38.229333 38.229333-89.088 57.344-154.965333 58.026667h-55.296zM159.744 681.301333H95.914667V116.053333L146.773333 65.536h730.112L927.744 116.053333v330.752H863.573333V142.677333l-13.312-13.312H173.056l-13.312 13.312z" p-id="4248"></path><path d="M512 830.464H50.858667L0 779.946667v-140.970667h440.32l22.869333 31.744H512v64.170667h-81.92l-22.869333-32.085334H63.829333v50.517334l13.312 13.312H512z" p-id="4249"></path><path d="M512 574.805333H223.914667V190.805333h575.829333v256h-63.829333V254.976H288.085333v255.658667H512z" p-id="4250"></path></svg>