<svg t="1697677179543" class="icon" viewBox="0 0 1024 1024" version="1.1" xmlns="http://www.w3.org/2000/svg" p-id="3599" width="200" height="200"><path d="M221.9609375 801.16015625h-40.4296875C116.00175781 801.16015625 62.87890625 748.03730469 62.87890625 682.5078125V181.53125C62.87890625 116.00175781 116.00175781 62.87890625 181.53125 62.87890625h500.9765625c65.52949219 0 118.65234375 53.12285156 118.65234375 118.65234375v42.1875h40.4296875c65.52949219 0 118.65234375 53.12285156 118.65234375 118.65234375v500.9765625c0 65.52949219-53.12285156 118.65234375-118.65234375 118.65234375H340.61328125c-65.52949219 0-118.65234375-53.12285156-118.65234375-118.65234375v-42.1875z m500.09765625-577.44140625v-42.1875c0-21.84345703-17.70732422-39.55078125-39.55078125-39.55078125H181.53125c-21.84345703 0-39.55078125 17.70732422-39.55078125 39.55078125v500.9765625c0 21.84345703 17.70732422 39.55078125 39.55078125 39.55078125h40.4296875V342.37109375c0-65.52949219 53.12285156-118.65234375 118.65234375-118.65234375h381.4453125z m-381.4453125 79.1015625c-21.84345703 0-39.55078125 17.70732422-39.55078125 39.55078125v500.9765625c0 21.84345703 17.70732422 39.55078125 39.55078125 39.55078125h500.9765625c21.84345703 0 39.55078125-17.70732422 39.55078125-39.55078125V342.37109375c0-21.84345703-17.70732422-39.55078125-39.55078125-39.55078125H340.61328125z m210.68261719 244.77539063V416.01464844c0-21.84433594 17.70820313-39.55078125 39.55078125-39.55078125 21.84433594 0 39.55078125 17.70644531 39.55078125 39.55078125V547.59570313h131.5828125c21.84257812 0 39.55078125 17.70732422 39.55078125 39.55078125s-17.70820313 39.55078125-39.55078125 39.55078125H630.39746094v131.58105468c0 21.84433594-17.70732422 39.55078125-39.55078125 39.55078125s-39.55078125-17.70644531-39.55078125-39.55078125V626.69726563H419.71484375c-21.84345703 0-39.55078125-17.70732422-39.55078125-39.55078126s17.70732422-39.55078125 39.55078125-39.55078125h131.58105469z" p-id="3600"></path></svg>