<svg t="1716800977936" class="icon" viewBox="0 0 1024 1024" version="1.1" xmlns="http://www.w3.org/2000/svg" p-id="8230" width="200" height="200"><path d="M744 112c70.692 0 128 57.308 128 128v634.444c0 20.987-17.013 38-38 38a38 38 0 0 1-11.908-1.914L679.04 863.323a20 20 0 0 0-13.894 0.504l-138.655 57.196a38 38 0 0 1-28.982 0l-138.655-57.196a20 20 0 0 0-13.894-0.504L201.908 910.53c-19.93 6.577-41.417-4.248-47.994-24.177A38 38 0 0 1 152 874.444V240c0-70.692 57.308-128 128-128h464z m0 72H280c-30.619 0-55.498 24.573-55.992 55.074L224 240v587.42l98.396-32.47a92 92 0 0 1 63.195 2.025l0.719 0.293L512 849.115l125.69-51.847a92 92 0 0 1 63.175-2.558l0.739 0.24L800 827.42V240c0-30.619-24.573-55.498-55.074-55.992L744 184z m-126.084 92l0.928 0.002c10.162 0.052 18.565 0.961 25.209 2.727 6.845 1.82 12.135 4.797 15.869 8.932 3.734 4.135 6.223 9.677 7.468 16.624 1.244 6.947 1.556 15.548 0.933 25.803-0.933 16.21-2.022 34.653-3.267 55.33a10286.14 10286.14 0 0 1-3.734 59.298h47.607l0.574 0.002c10.265 0.071 17.23 2.055 20.896 5.953 3.734 3.97 5.601 10.917 5.601 20.841 0 11.248-1.867 18.443-5.6 21.586-3.735 3.143-10.891 4.714-21.47 4.714H544.171v22.33l1.319 1.747c14.522 19.151 29.485 36.433 44.887 51.846 2.8-7.61 9.024-14.06 18.67-19.353 5.912-3.308 10.657-6.12 14.235-8.436 3.579-2.316 6.69-4.714 9.335-7.195a179.595 179.595 0 0 0 7.934-7.94l8.951-9.516 0.618-0.656c6.845-8.602 14.235-13.398 22.17-14.39 7.934-0.993 15.013 1.488 21.236 7.442 7.157 7.61 10.268 15.466 9.335 23.571-0.934 8.105-6.068 16.954-15.403 26.548-4.667 4.962-8.634 9.015-11.901 12.158a171.677 171.677 0 0 1-10.035 8.932c-3.423 2.812-7.235 5.624-11.435 8.435-4.2 2.812-9.568 6.203-16.103 10.173-2.8 1.985-5.912 3.804-9.334 5.459 13.068 10.586 26.37 20.427 39.906 29.525 13.535 9.097 27.926 17.947 43.173 26.548 8.712 4.631 15.169 10.42 19.37 17.368 4.2 6.947 4.433 15.052 0.7 24.315-7.468 19.518-22.87 22.66-46.207 9.428-29.25-17.202-55.23-34.57-77.945-52.104-22.715-17.533-43.874-37.216-63.476-59.05v75.426l-0.004 0.776c-0.132 16.51-4.487 29.731-13.065 39.666-8.712 10.09-21.626 15.135-38.74 15.135-8.09 0-16.646-0.662-25.67-1.985-9.023-1.323-20.07-3.804-33.138-7.443-22.714-7.278-28.626-21.669-17.736-43.172 4.045-8.601 9.49-13.315 16.336-14.142 6.845-0.827 16.18 0.91 28.004 5.21 10.58 3.64 18.436 4.383 23.57 2.233s7.701-8.022 7.701-17.616V497.812H314.07l-0.584-0.002c-10.259-0.066-17.22-1.885-20.885-5.456-3.734-3.64-5.601-10.255-5.601-19.85 0-9.924 1.867-17.036 5.6-21.337 3.735-4.3 10.891-6.45 21.47-6.45h290.31l1.867-34.736H382.681l-0.582-0.002c-9.642-0.067-16.294-1.803-19.955-5.209-3.733-3.473-5.6-9.842-5.6-19.104 0-8.602 1.867-14.804 5.6-18.609 3.734-3.804 10.58-5.706 20.537-5.706h226.834l1.4-25.804-0.005-0.345c-0.052-1.813-0.517-3.187-1.395-4.121-0.934-0.993-3.112-1.489-6.535-1.489H357.477l-0.548-0.003c-17.993-0.183-26.99-9.445-26.99-27.785 0-10.586 2.257-17.534 6.768-20.842 4.512-3.308 11.435-4.962 20.77-4.962h260.439zM335.66 510.017c6.69-0.996 14.858 0.498 24.504 4.484a1895.88 1895.88 0 0 1 17.269 8.47c4.667 2.326 9.101 4.568 13.302 6.727 4.2 2.159 8.557 4.567 13.068 7.224 4.512 2.657 10.035 5.98 16.57 9.965 9.956 6.975 16.18 12.622 18.669 16.94 2.49 4.318 2.49 9.965 0 16.94 6.223-5.646 12.213-8.553 17.97-8.719 5.755-0.166 12.212 3.073 19.369 9.716 8.712 8.636 12.135 16.359 10.268 23.168-1.867 6.81-7.624 14.366-17.27 22.67-7.156 6.311-15.79 13.037-25.903 20.179-10.113 7.141-20.925 14.283-32.438 21.424a755.555 755.555 0 0 1-35.472 20.677c-12.135 6.643-23.492 12.622-34.071 17.937-14.314 6.643-25.204 9.632-32.672 8.968-7.468-0.664-13.068-5.647-16.802-14.947-4.668-10.961-5.212-19.598-1.634-25.909 3.579-6.31 12.058-12.456 25.437-18.435 8.09-3.321 16.414-7.141 24.97-11.46a753.436 753.436 0 0 0 25.437-13.452 575.948 575.948 0 0 0 24.27-14.2c7.78-4.816 14.936-9.55 21.47-14.2-6.223-1.66-13.068-4.982-20.536-9.964-5.29-2.99-9.88-5.73-13.769-8.221a295.215 295.215 0 0 0-11.435-6.975 274.216 274.216 0 0 0-11.901-6.478c-4.2-2.159-8.946-4.567-14.236-7.224-9.957-4.65-16.88-10.712-20.77-18.186-3.889-7.473-3.811-15.362 0.234-23.666 4.045-7.972 9.413-12.456 16.102-13.453z" p-id="8231"></path></svg>