<svg t="1697677457627" class="icon" viewBox="0 0 1028 1024" version="1.1" xmlns="http://www.w3.org/2000/svg" p-id="4515" width="200" height="200"><path d="M924.48 738.56V177.28a73.28 73.28 0 0 0-68.16-70.4H71.36A68.16 68.16 0 0 0 3.2 177.28v561.28a72.96 72.96 0 0 0 68.48 72.64h784.96a68.48 68.48 0 0 0 68.16-71.68z m-854.08 3.2V176.32h786.56v565.44H70.4z m0 0" p-id="4516"></path><path d="M516.48 499.84L448 423.36l-169.6 211.2-70.4-66.56L105.6 704h714.56v-136L652.16 320zM256 388.8a88.32 88.32 0 0 0 0-176.64A87.68 87.68 0 0 0 172.16 300.8 85.76 85.76 0 0 0 256 388.8z m0 0" p-id="4517"></path><path d="M960 212.8v541.44s11.2 92.16-55.04 92.16H105.6a74.24 74.24 0 0 0 68.48 70.4H960a68.8 68.8 0 0 0 68.48-72.64V283.2A78.08 78.08 0 0 0 960 212.8z" p-id="4518"></path></svg>