<?xml version="1.0" standalone="no"?><!DOCTYPE svg PUBLIC "-//W3C//DTD SVG 1.1//EN" "http://www.w3.org/Graphics/SVG/1.1/DTD/svg11.dtd"><svg t="1725609667100" class="icon" viewBox="0 0 1024 1024" version="1.1" xmlns="http://www.w3.org/2000/svg" p-id="25913" xmlns:xlink="http://www.w3.org/1999/xlink" width="200" height="200"><path d="M876.373 223.147l-59.306-71.68C805.547 136.96 788.053 128 768 128H256c-20.053 0-37.547 8.96-49.493 23.467l-58.88 71.68C135.253 237.653 128 256.853 128 277.333v533.334C128 857.6 166.4 896 213.333 896h597.334C857.6 896 896 857.6 896 810.667V277.333c0-20.48-7.253-39.68-19.627-54.186zM512 746.667L277.333 512h149.334v-85.333h170.666V512h149.334L512 746.667zM218.453 213.333l34.56-42.666h512l40.107 42.666H218.453z" fill="#1890FF" p-id="25914"></path></svg>