<svg t="1752030943642" class="icon" viewBox="0 0 1024 1024" version="1.1" xmlns="http://www.w3.org/2000/svg" p-id="25096" width="200" height="200"><path d="M187.1 912c-41.4 0-75.1-33.7-75.1-75.1V187.2c0-41.4 33.7-75.2 75.1-75.2h243.6c9.2 0 17.9 3.6 24.4 10.1s10.1 15.2 10.1 24.4-3.6 17.9-10.1 24.4-15.2 10.1-24.4 10.1H181v662h661.9l-0.1-249.6c0-19 15.5-34.5 34.6-34.5 9.2 0 17.9 3.6 24.4 10.1s10.1 15.2 10.1 24.4v243.5c0 41.4-33.7 75.1-75.1 75.1H187.1z" p-id="25097"></path><path d="M715 506c-9.1 0-18-3.7-24.4-10.1-6.5-6.5-10.1-15.2-10.1-24.4V343.6H552.6c-9.2 0-17.9-3.6-24.4-10.1s-10.1-15.2-10.1-24.4 3.6-17.9 10.1-24.4 15.2-10.1 24.4-10.1h127.8v-128c0-19.1 15.5-34.6 34.6-34.6 9.2 0 17.9 3.6 24.4 10.1s10.1 15.2 10.1 24.4v127.9l127.9-0.1c19.1 0 34.6 15.5 34.6 34.6 0 9.2-3.6 17.9-10.1 24.4s-15.2 10.1-24.4 10.1H749.6v127.9c0 9.2-3.6 17.9-10.1 24.4-6.6 6.7-15.2 10.3-24.5 10.3z" p-id="25098"></path></svg>