<svg t="1697677089812" class="icon" viewBox="0 0 1024 1024" version="1.1" xmlns="http://www.w3.org/2000/svg" p-id="2954" width="200" height="200"><path d="M588.00000031 975.99999969c-12 0-19.99999969-4.00000031-28.00000031-12L60.00000031 464c-7.99999969-7.99999969-12-19.99999969-12-28.00000031l7.99999969-339.99999938c0-19.99999969 16.00000031-40.00000031 40.00000031-40.00000031l339.99999938-7.99999969c7.99999969 0 19.99999969 4.00000031 28.00000031 12l499.99999969 499.99999969c16.00000031 16.00000031 16.00000031 40.00000031 0 55.99999969l-348 348c-7.99999969 7.99999969-16.00000031 12-27.99999938 12zM128 420.00000031l460.00000031 459.99999938 291.99999938-291.99999938L420.00000031 128l-288 4.00000031-4.00000031 288z" p-id="2955"></path><path d="M296 296m-60 0a60 60 0 1 0 120 0 60 60 0 1 0-120 0Z" p-id="2956"></path></svg>