<?xml version="1.0" encoding="UTF-8"?>
<svg width="16px" height="18px" viewBox="0 0 16 18" version="1.1" xmlns="http://www.w3.org/2000/svg" xmlns:xlink="http://www.w3.org/1999/xlink">
    <title>形状</title>
    <g id="页面-1" stroke="none" stroke-width="1" fill="none" fill-rule="evenodd">
        <g id="登录一" transform="translate(-1265.000000, -516.000000)" fill="#141423" fill-rule="nonzero">
            <g id="编组-9" transform="translate(1218.000000, 223.000000)">
                <g id="编组-9备份-2" transform="translate(29.619195, 144.329137)">
                    <g id="编组-19" transform="translate(0.000000, 46.670699)">
                        <g id="编组-7" transform="translate(0.000000, 85.857143)">
                            <path d="M25.1640867,16.5415445 C27.5578906,16.5415445 29.498452,18.4824411 29.498452,20.8766585 L29.498452,22.7345645 L32.5944272,22.7345645 L32.5944272,33.8820006 L17.7337461,33.8820006 L17.7337461,22.7345645 L20.8297214,22.7345645 L20.8297214,20.8766585 C20.8297214,18.4824411 22.7702828,16.5415445 25.1640867,16.5415445 Z M30.8606811,24.4686101 L19.4674923,24.4686101 L19.4674923,32.147955 L30.8606811,32.147955 L30.8606811,24.4686101 Z M25.1640867,26.4503766 C25.6671448,26.4504499 26.1201721,26.754885 26.3103713,27.2206818 C26.5005705,27.6864785 26.3901432,28.2210691 26.0309598,28.5733438 L26.0309598,30.0770091 L24.2972136,30.0770091 L24.2972136,28.5733438 C23.9380302,28.2210691 23.8276029,27.6864785 24.0178021,27.2206818 C24.2080013,26.754885 24.6610286,26.4504499 25.1640867,26.4503766 L25.1640867,26.4503766 Z M25.1640867,18.2755901 C23.7278044,18.2755901 22.5634675,19.4401281 22.5634675,20.8766585 L22.5622291,22.7345645 L27.7647059,22.7345645 L27.7647059,20.8766585 C27.7647059,19.4401281 26.600369,18.2755901 25.1640867,18.2755901 Z" id="形状"></path>
                        </g>
                    </g>
                </g>
            </g>
        </g>
    </g>
</svg>