<svg t="1680078476059" class="icon" viewBox="0 0 1024 1024" version="1.1" xmlns="http://www.w3.org/2000/svg" p-id="30056" width="200" height="200"><path d="M485.052632 970.105263H53.894737V53.894737h431.157895v296.421052H431.157895V107.789474H107.789474v808.421052h323.368421v-242.526315h53.894737zM538.947368 970.105263h431.157895V53.894737h-431.157895v296.421052h53.894737V107.789474h323.368421v808.421052h-323.368421v-242.526315h-53.894737z"   p-id="30057"></path><path d="M431.157895 485.052632V431.157895H377.263158v53.894737H161.684211v53.894736h215.578947v53.894737h53.894737v-53.894737h53.894737V485.052632H431.157895zM323.368421 377.263158v53.894737h53.894737V377.263158H323.368421z m0 269.473684h53.894737v-53.894737H323.368421v53.894737zM538.947368 485.052632v53.894736h53.894737v53.894737h53.894737v-53.894737h215.578947V485.052632h-215.578947V431.157895h-53.894737v53.894737h-53.894737z m107.789474-107.789474v53.894737h53.894737V377.263158h-53.894737z m53.894737 215.578947h-53.894737v53.894737h53.894737v-53.894737z" p-id="30058"></path></svg>