<svg t="1684807057398" class="icon" viewBox="0 0 1024 1024" version="1.1" xmlns="http://www.w3.org/2000/svg" p-id="1735" width="200" height="200"><path d="M763.904 324.096H228.352a114.688 114.688 0 0 0-114.688 114.688v307.2a114.688 114.688 0 0 0 114.688 114.688h535.552a114.688 114.688 0 0 0 114.688-114.688v-307.2a114.688 114.688 0 0 0-114.688-114.688z m-114.688 295.424h-125.952v126.464a27.136 27.136 0 1 1-54.784 0v-126.976H343.04a27.648 27.648 0 0 1 0-55.808h125.44V437.76a27.136 27.136 0 1 1 54.784 0V563.2h125.44a27.648 27.648 0 0 1 0 54.784zM321.024 212.48h358.4a25.6 25.6 0 1 0 0-51.2h-358.4a25.6 25.6 0 1 0 0 51.2zM218.624 296.96h563.2a25.6 25.6 0 0 0 0-51.2h-563.2a25.6 25.6 0 0 0 0 51.2z" fill="" p-id="1736"></path></svg>