<svg t="1686126862751" class="icon" viewBox="0 0 1024 1024" version="1.1" xmlns="http://www.w3.org/2000/svg" p-id="16852" width="200" height="200"><path d="M829.44 989.866667H194.56c-51.2 0-92.16-40.96-92.16-92.16V126.293333C102.4 75.093333 143.36 34.133333 194.56 34.133333h634.88c51.2 0 92.16 40.96 92.16 92.16v298.666667c0 13.653333-11.946667 25.6-25.6 25.6s-25.6-10.24-25.6-25.6V126.293333C870.4 104.106667 851.626667 85.333333 829.44 85.333333H194.56C172.373333 85.333333 153.6 104.106667 153.6 126.293333v769.706667c0 22.186667 18.773333 40.96 40.96 40.96h634.88c22.186667 0 40.96-18.773333 40.96-40.96v-69.973333c0-13.653333 11.946667-25.6 25.6-25.6s25.6 11.946667 25.6 25.6v69.973333c0 52.906667-40.96 93.866667-92.16 93.866667z" p-id="16853"></path><path d="M744.106667 298.666667H279.893333c-13.653333 0-25.6-11.946667-25.6-25.6s11.946667-25.6 25.6-25.6h465.92c13.653333 0 25.6 11.946667 25.6 25.6-1.706667 13.653333-11.946667 25.6-27.306666 25.6zM554.666667 474.453333H279.893333c-13.653333 0-25.6-11.946667-25.6-25.6s11.946667-25.6 25.6-25.6h274.773334c13.653333 0 25.6 11.946667 25.6 25.6s-11.946667 25.6-25.6 25.6zM896 709.973333H590.506667c-13.653333 0-25.6-11.946667-25.6-25.6s11.946667-25.6 25.6-25.6h305.493333c13.653333 0 25.6 11.946667 25.6 25.6s-11.946667 25.6-25.6 25.6z" p-id="16854"></path><path d="M807.253333 798.72c-6.826667 0-13.653333-1.706667-18.773333-6.826667-10.24-10.24-10.24-25.6 0-35.84l71.68-71.68-71.68-69.973333c-10.24-10.24-10.24-25.6 0-35.84s25.6-10.24 35.84 0l88.746667 88.746667c10.24 10.24 10.24 25.6 0 35.84l-88.746667 88.746666c-3.413333 5.12-10.24 6.826667-17.066667 6.826667z" p-id="16855"></path></svg>