<svg t="1733298730077" class="icon" viewBox="0 0 1024 1024" version="1.1" xmlns="http://www.w3.org/2000/svg" p-id="2314" width="200" height="200"><path d="M494.4896 955.6992c4.7104 4.5056 11.0592 7.0656 17.6128 7.0656 6.5536 0 12.9024-2.56 17.6128-7.0656m0.1024 0l474.112-454.0416c20.8896-19.968 19.5584-53.1456-1.2288-73.0112s-54.3744-19.968-75.1616-0.1024l-415.3344 397.312-415.232-397.312c-20.8896-19.968-54.4768-19.7632-75.1616 0.1024C0.9216 448.4096-0.4096 481.6896 20.48 501.5552l474.112 454.0416h35.2256z m0 0" p-id="2315"></path><path d="M494.1824 603.3408c4.7104 4.5056 11.0592 6.9632 17.6128 6.9632 6.5536 0 12.9024-2.56 17.6128-6.9632m0.1024 0l474.112-454.0416c20.8896-19.968 19.5584-53.1456-1.2288-73.0112s-54.3744-19.968-75.1616-0.1024l-415.3344 397.312-415.3344-397.312c-20.8896-19.968-54.4768-19.7632-75.1616 0.1024C0.6144 96.1536-0.7168 129.4336 20.1728 149.2992l474.112 454.0416h35.2256z m0 0" p-id="2316"></path></svg>