<svg xmlns="http://www.w3.org/2000/svg" viewBox="0 0 22 22" class="design-iconfont">
  <g fill-rule="nonzero" fill="none">
    <path d="M17.5367139,3.34126813 L2.99415996,3.34126813 C1.8386867,3.34126813 1,4.24448092 1,5.48870264 L1,16.2765657 C1,17.4793134 1.79994303,18.2880575 2.99415996,18.2880575 L7.25596467,18.2880575 L9.80621038,20.7926297 C9.94295277,20.9308766 10.1229969,21 10.3030411,21 C10.4853643,21 10.6654085,20.9285725 10.8044299,20.7903256 L13.3068157,18.2903616 L17.5367139,18.2903616 C18.7263727,18.2903616 19.5263158,17.4816175 19.5263158,16.2788698 L19.5263158,5.48870264 C19.5263158,4.24448092 18.6899081,3.34126813 17.5367139,3.34126813 Z" fill="#FFF"/>
    <path d="M5.99565556,10.0537677 C6.18120214,10.0537677 6.34888961,10.1302949 6.47038295,10.2531249 C6.59415652,10.3782602 6.67018017,10.5512793 6.67018017,10.7420832 C6.67018017,10.9328871 6.59415652,11.1059062 6.47038295,11.2310415 C6.34888961,11.3538716 6.18120214,11.4303987 5.99565556,11.4303987 C5.81010899,11.4303987 5.64242151,11.3538716 5.52092817,11.2310415 C5.3971546,11.1059062 5.32113096,10.9328871 5.32113096,10.7420832 C5.32113096,10.5512793 5.3971546,10.3782602 5.52092817,10.2531249 C5.64242151,10.1302949 5.81010899,10.0537677 5.99565556,10.0537677 Z" stroke="#0380FF" stroke-width="1.15789474" fill="#0380FF"/>
    <path d="M10.4625739,10.0537677 C10.6481205,10.0537677 10.8158079,10.1302949 10.9373013,10.2531249 C11.0610748,10.3782602 11.1370985,10.5512793 11.1370985,10.7420832 C11.1370985,10.9328871 11.0610748,11.1059062 10.9373013,11.2310415 C10.8158079,11.3538716 10.6481205,11.4303987 10.4625739,11.4303987 C10.2770273,11.4303987 10.1093398,11.3538716 9.9878465,11.2310415 C9.86407292,11.1059062 9.78804928,10.9328871 9.78804928,10.7420832 C9.78804928,10.5512793 9.86407292,10.3782602 9.9878465,10.2531249 C10.1093398,10.1302949 10.2770273,10.0537677 10.4625739,10.0537677 Z" stroke="#0380FF" stroke-width="1.15789474" fill="#0380FF"/>
    <path d="M14.8998647,10.0376389 C15.0854113,10.0376389 15.2530987,10.1141661 15.3745921,10.2369961 C15.4983656,10.3621314 15.5743893,10.5351505 15.5743893,10.7259544 C15.5743893,10.9167583 15.4983656,11.0897774 15.3745921,11.2149128 C15.2530987,11.3377428 15.0854113,11.4142699 14.8998647,11.4142699 C14.7143181,11.4142699 14.5466306,11.3377428 14.4251373,11.2149128 C14.3013637,11.0897774 14.2253401,10.9167583 14.2253401,10.7259544 C14.2253401,10.5351505 14.3013637,10.3621314 14.4251373,10.2369961 C14.5466306,10.1141661 14.7143181,10.0376389 14.8998647,10.0376389 Z" stroke="#0380FF" stroke-width="1.15789474" fill="#0380FF"/>
  </g>
</svg>
