<svg t="1685928721537" class="icon" viewBox="0 0 1024 1024" version="1.1" xmlns="http://www.w3.org/2000/svg" p-id="4278" width="200" height="200"><path d="M885.12 330.666667c-65.216-90.453333-171.498667-149.333333-291.52-149.333334-198.357333 0-359.146667 160.768-359.146667 359.104 0 151.872 94.293333 281.706667 227.477334 334.229334H181.12a85.333333 85.333333 0 0 1-85.333333-85.333334V170.666667a85.333333 85.333333 0 0 1 85.333333-85.333334h618.666667a85.333333 85.333333 0 0 1 85.333333 85.333334v160z m-57.642667 374.976l92.309334 92.309333a48.64 48.64 0 0 1 0 68.693333c-18.986667 18.986667-49.706667 18.986667-68.693334 0l-92.330666-92.309333a283.946667 283.946667 0 0 1-164.394667 52.117333c-157.546667 0-285.226667-127.701333-285.226667-285.226666 0-157.525333 127.68-285.226667 285.226667-285.226667 157.546667 0 285.226667 127.701333 285.226667 285.226667 0 61.226667-19.285333 117.952-52.117334 164.416zM647.893333 341.184c43.946667 5.333333 80.490667 33.493333 110.378667 86.613333a21.333333 21.333333 0 0 0 37.184-20.906666c-36.096-64.213333-83.84-100.949333-142.421333-108.074667a21.333333 21.333333 0 1 0-5.141334 42.368z" p-id="4279"></path></svg>