<svg t="1696662038095" class="icon" viewBox="0 0 1024 1024" version="1.1" xmlns="http://www.w3.org/2000/svg" p-id="2952" width="200" height="200"><path d="M764.3136 348.9792c-28.2624-38.329458-53.384533-30.729102-67.884373-15.983502L437.152427 590.215396 315.992747 465.55136c-14.572658-14.818418-36.864-36.235947-71.252196-0.728178-38.529707 40.004267 2.78528 74.365156 17.194098 89.183573l148.02944 152.016213c0 0.16384 0.24576 0.16384 0.336782 0.24576 0 0.08192 0.072818 0.236658 0.154738 0.236658 2.357476 2.366578 5.215573 3.832036 8.055467 5.370311 1.55648 0.8192 2.70336 2.038898 4.241636 2.694258 4.551111 1.793138 9.275164 2.676053 14.163058 2.676053 4.805973 0 9.530027-0.882916 14.09024-2.676053 1.465458-0.57344 2.521316-1.711218 3.977671-2.530418 2.776178-1.547378 5.707093-2.921813 8.146489-5.288391 0.072818-0.08192 0.072818-0.24576 0.24576-0.24576 0.08192-0.154738 0.16384-0.154738 0.32768-0.236658l300.855751-304.205369C779.132018 387.408782 778.97728 363.633778 764.3136 348.9792L764.3136 348.9792 764.3136 348.9792zM887.594098 977.078044 136.041813 977.078044C73.837227 977.078044 23.274382 926.5152 23.274382 864.301511L23.274382 112.758329C23.274382 50.562844 73.837227 0 136.041813 0l751.543182 0c62.122667 0 112.767431 50.562844 112.767431 112.758329l0 751.543182C1000.361529 926.5152 949.716764 977.078044 887.594098 977.078044L887.594098 977.078044 887.594098 977.078044z" p-id="2953" fill="#56c60c"></path></svg>