<svg t="1697677686312" class="icon" viewBox="0 0 1024 1024" version="1.1" xmlns="http://www.w3.org/2000/svg" p-id="6030" width="200" height="200"><path d="M332.8 537.6h-51.2c-12.8 0-25.6 12.8-25.6 25.6s12.8 25.6 25.6 25.6h51.2c12.8 0 25.6-12.8 25.6-25.6s-12.8-25.6-25.6-25.6z m0-153.6h-51.2c-12.8 0-25.6 12.8-25.6 25.6s12.8 25.6 25.6 25.6h51.2c12.8 0 25.6-12.8 25.6-25.6S345.6 384 332.8 384z m409.6 153.6H435.2c-12.8 0-25.6 12.8-25.6 25.6s12.8 25.6 25.6 25.6h307.2c12.8 0 25.6-12.8 25.6-25.6s-12.8-25.6-25.6-25.6zM332.8 691.2h-51.2c-12.8 0-25.6 12.8-25.6 25.6s12.8 25.6 25.6 25.6h51.2c12.8 0 25.6-12.8 25.6-25.6s-12.8-25.6-25.6-25.6z m409.6 0H435.2c-12.8 0-25.6 12.8-25.6 25.6s12.8 25.6 25.6 25.6h307.2c12.8 0 25.6-12.8 25.6-25.6s-12.8-25.6-25.6-25.6z m0-307.2H435.2c-12.8 0-25.6 12.8-25.6 25.6s12.8 25.6 25.6 25.6h307.2c12.8 0 25.6-12.8 25.6-25.6S755.2 384 742.4 384z" p-id="6031"></path><path d="M896 153.6H768V76.8c0-12.8-12.8-25.6-25.6-25.6S716.8 64 716.8 76.8v76.8H307.2V76.8c0-12.8-12.8-25.6-25.6-25.6S256 64 256 76.8v76.8H128c-15.36 0-25.6 10.24-25.6 25.6v768c0 15.36 10.24 25.6 25.6 25.6h768c15.36 0 25.6-10.24 25.6-25.6v-768c0-15.36-10.24-25.6-25.6-25.6z m-25.6 768H153.6V204.8H256v25.6c0 12.8 12.8 25.6 25.6 25.6s25.6-12.8 25.6-25.6v-25.6h409.6v25.6c0 12.8 12.8 25.6 25.6 25.6s25.6-12.8 25.6-25.6v-25.6h102.4v716.8z" p-id="6032"></path></svg>