<svg t="1697676887367" class="icon" viewBox="0 0 1024 1024" version="1.1" xmlns="http://www.w3.org/2000/svg" p-id="1899" width="200" height="200"><path d="M715.45212881 62H157.81162695A47.45107354 47.45107354 0 0 0 110.36055254 109.45107354v805.08655459a47.45107354 47.45107354 0 0 0 47.45107441 47.4510744h708.3767461a47.45107354 47.45107354 0 0 0 47.45107442-47.4510744V247.52240088z m-9.5918959 90.05535967l131.13443232 122.78530283H705.86023291zM182.66695156 889.68230352V134.30639815h450.88688321v212.8406625h207.790512V889.68230352z" fill="#199cfe" p-id="1900"></path><path d="M324.44398144 446.83950781h-73.17633516v208.59266075h50.18516016v-69.24467374h24.39211114c44.06171133 0 82.47448565-21.87268594 82.47448565-71.49295195-0.04519161-51.58609628-37.89307178-67.85503594-83.87542179-67.85503506z m-1.1297874 99.81672276h-21.8613876v-60.28545938h20.47174893c24.10966494 0 37.5654331 7.29842695 37.5654331 28.32377168 0 20.46045146-11.77238584 31.96168769-36.16449696 31.9616877zM503.87682763 446.83950781H443.87381533v208.59266075h62.80488545c60.83905518 0 102.8897455-32.76383643 102.8897455-105.4091707s-42.05068945-103.18349004-105.69161865-103.18349005z m-3.08431933 168.2253545h-6.7787253V486.65321826h6.7787253c33.64507089 0 57.47228877 13.73821612 57.47228877 63.3697796s-23.82721787 65.04186533-57.47228877 65.04186445zM648.25236934 655.43216856h50.18515928v-79.61612344h71.21050487v-41.77954072h-71.21050487v-45.69990294h82.99418818v-41.48579618H648.25236934v208.58136328z" fill="#199cfe" p-id="1901"></path></svg>