<svg t="1687760428679" class="icon" viewBox="0 0 1024 1024" version="1.1" xmlns="http://www.w3.org/2000/svg" p-id="2701" width="200" height="200"><path d="M825.6 64H198.4A134.4 134.4 0 0 0 64 198.4v627.2A134.4 134.4 0 0 0 198.4 960h627.2a134.4 134.4 0 0 0 134.4-134.4V198.4A134.4 134.4 0 0 0 825.6 64zM166.016 795.584H64.384v-59.776h101.632v59.776z m0-119.52H106.24v-59.776h59.776v59.776z m0-119.552H64.384v-59.776h101.632v59.776z m0-119.552H106.24v-59.776h59.776v59.776z m0-119.52H64.384V257.664h101.632V317.44z m571.232 477.696c-74.304 0-224.928-76.32-297.184-148.576-72.256-72.288-148.608-222.912-148.608-297.184 0 0 56.928-91.712 94.08-91.712s148.608 111.456 111.456 148.608c-37.152 37.12-74.304 37.12-74.304 74.272 0 37.152 37.152 74.272 74.304 111.456 37.152 37.152 74.304 74.304 111.456 74.304s37.152-37.152 74.304-74.304 148.608 74.304 148.608 111.456c-0.032 37.152-94.112 91.68-94.112 91.68z" p-id="2702"></path></svg>