<svg t="1711351465919" class="icon" viewBox="0 0 1024 1024" version="1.1" xmlns="http://www.w3.org/2000/svg" p-id="6326" width="200" height="200"><path d="M146.645333 596.010667a21.717333 21.717333 0 0 1-8.789333-7.061334L68.224 493.866667a21.824 21.824 0 1 1 35.2-25.792l27.690667 37.802666C139.2 284.032 321.6 106.666667 545.408 106.666667 774.4 106.666667 960 292.266667 960 521.237333s-185.6 414.592-414.570667 414.592c-147.882667 0-282.24-78.08-356.48-202.837333a21.824 21.824 0 1 1 37.482667-22.314667 370.688 370.688 0 0 0 318.997333 181.504c204.864 0 370.922667-166.08 370.922667-370.944 0-204.864-166.058667-370.922667-370.922667-370.922666-204.864 0-370.944 166.058667-370.944 370.922666 0 17.621333 1.216 35.072 3.626667 52.266667a21.824 21.824 0 0 1-31.466667 22.506667z m420.586667-74.773334v65.472h152.746667a21.824 21.824 0 0 1 0 43.626667h-152.746667v130.922667a21.824 21.824 0 1 1-43.626667 0v-130.922667h-152.746666a21.824 21.824 0 0 1 0-43.626667h152.746666v-65.472h-152.746666a21.824 21.824 0 0 1 0-43.626666h140.202666l-151.936-124.992a21.824 21.824 0 1 1 27.712-33.706667l159.637334 131.306667L706.133333 318.933333a21.824 21.824 0 1 1 27.733334 33.706667l-151.957334 124.970667h138.090667a21.824 21.824 0 0 1 0 43.626666h-152.746667z" fill="#222222" p-id="6327"></path></svg>