<svg t="1697677551681" class="icon" viewBox="0 0 1024 1024" version="1.1" xmlns="http://www.w3.org/2000/svg" p-id="5150" width="200" height="200"><path d="M738.83369375 529.62419c-136.84665187 0-248.812095-111.96544312-248.81209594-248.812095s111.96544312-248.812095 248.81209594-248.812095 248.812095 111.96544312 248.812095 248.812095-111.96544312 248.812095-248.812095 248.812095z m0-435.42116625c-103.67170594 0-186.60907125 82.93736531-186.60907219 186.60907125s82.93736531 186.60907125 186.60907219 186.60907125 186.60907125-82.93736531 186.60907125-186.60907125-82.93736531-186.60907125-186.60907125-186.60907125z" p-id="5151"></path><path d="M828.4060475 343.01511875h-99.52483781c-16.58747344 0-31.10151187-14.51403844-31.10151188-31.10151187V177.14038906c0-16.58747344 14.51403844-31.10151187 31.10151188-31.10151187s31.10151187 14.51403844 31.10151187 31.10151187v103.67170594h68.42332594c16.58747344 0 31.10151187 14.51403844 31.10151187 31.10151187S844.99352094 343.01511875 828.4060475 343.01511875z" p-id="5152"></path><path d="M533.563715 759.77537844H224.62203031c-16.58747344 0-31.10151187-14.51403844-31.10151187-31.10151281s14.51403844-31.10151187 31.10151187-31.10151188h308.94168469c16.58747344 0 31.10151187 14.51403844 31.10151187 31.10151188s-14.51403844 31.10151187-31.10151187 31.10151281z" p-id="5153"></path><path d="M425.74514 529.62419h-201.12310969c-16.58747344 0-31.10151187-14.51403844-31.10151187-31.10151187s14.51403844-31.10151187 31.10151187-31.10151188h201.12310969c16.58747344 0 31.10151187 14.51403844 31.10151187 31.10151188s-14.51403844 31.10151187-31.10151187 31.10151187z"  p-id="5154"></path><path d="M857.01943813 992H67.04103688c-16.58747344 0-31.10151187-14.51403844-31.10151188-31.10151187V94.20302375c0-16.58747344 14.51403844-31.10151187 31.10151188-31.10151187h352.48380093c16.58747344 0 31.10151187 14.51403844 31.10151188 31.10151187s-14.51403844 31.10151187-31.10151188 31.10151187H98.14254875v804.49244063h727.7753775V602.19438406c0-16.58747344 14.51403844-31.10151187 31.10151187-31.10151187s31.10151187 14.51403844 31.10151188 31.10151187v358.70410406c0 16.58747344-12.44060437 31.10151187-31.10151187 31.10151188z" p-id="5155"></path></svg>