<svg t="1697677574182" class="icon" viewBox="0 0 1024 1024" version="1.1" xmlns="http://www.w3.org/2000/svg" p-id="5349" width="200" height="200"><path d="M598.87995688 923.21555469H214.16014906c-38.01598125 0-69.11996531-30.863985-69.11996531-68.63996625V170.23993062c0-37.72798125 31.10398406-68.59196531 69.11996531-68.59196531h590.87970469c38.06398125 0 69.11996531 30.863985 69.11996531 68.63996532v341.18382937h0.336v0.096a34.55998313 34.55998313 0 0 0 34.79998219 34.41598313A34.55998313 34.55998313 0 0 0 943.99978438 511.51976c0-1.29599906-0.096-2.44799906-0.192-3.74399813V169.18393156C943.80778437 93.72796906 913.99979938 32 837.91983687 32H218.19214719C142.20818469 32 80.00021562 93.72796906 80.00021562 169.18393156v685.63165688C80.00021562 930.27155094 142.20818469 991.99952 218.24014719 991.99952h380.25580968a34.55998313 34.55998313 0 0 0 34.75198219-34.41598313 34.55998313 34.55998313 0 0 0-34.31998219-34.36798218" p-id="5350"></path><path d="M650.71993063 793.85561937c-56.39997187 0-102.23994844-46.51197656-102.23994844-103.82394843 0-57.35997094 45.8399775-103.82394844 102.23994844-103.82394844 56.39997187 0 102.14394938 46.46397656 102.14394937 103.82394844 0 57.31197094-45.6479775 103.82394844-102.14394937 103.82394843z m145.82392687-0.624a29.759985 29.759985 0 0 0-7.19999625-5.61599718 172.79991375 172.79991375 0 0 0 29.951985-97.58395125c0-94.70395219-75.5039625-171.35991469-168.57591562-171.35991469-93.11995312 0-168.62391562 76.65596156-168.62391563 171.35991469 0 94.70395219 75.5039625 171.35991469 168.62391563 171.35991468 34.07998312 0 65.85596719-10.31999438 92.44795406-28.03198593a34.31998313 34.31998313 0 0 0 6.04799625 8.63999531l86.87995687 89.423955c13.00799344 13.43999344 34.27198312 13.43999344 47.32797657 0a35.27998219 35.27998219 0 0 0 0-48.76797563l-86.87995688-89.423955zM316.7360975 440.14379562a34.07998312 34.07998312 0 0 0-33.45598313 34.46398313 34.07998312 34.07998312 0 0 0 33.45598313 34.46398312h199.24790062c18.47999062 0 33.59998313-15.4559925 33.45598313-34.46398312a34.07998312 34.07998312 0 0 0-33.45598312-34.46398313h-199.19990063z m460.12777031-171.55191375a34.07998312 34.07998312 0 0 0-33.50398312-34.46398312H316.7360975a34.07998312 34.07998312 0 0 0-33.45598313 34.46398312 34.07998312 34.07998312 0 0 0 33.45598313 34.46398219h426.62378719a34.07998312 34.07998312 0 0 0 33.50398312-34.46398219z" p-id="5351"></path></svg>