<svg t="1717552791681" class="icon" viewBox="0 0 1024 1024" version="1.1" xmlns="http://www.w3.org/2000/svg" p-id="2537" width="200" height="200"><path d="M931.118441 700.577711l-136.635682-78.808596c-8.69965-5.117441-19.446277-5.117441-27.634183 0l-136.635682 78.808596c-8.69965 5.117441-13.817091 14.328836-13.817092 24.051974v157.617192c0 9.723138 5.117441 19.446277 13.817092 24.051974l136.635682 78.808595c4.093953 2.558721 9.211394 3.582209 13.817091 3.582209 5.117441 0 9.723138-1.535232 13.817092-3.582209l136.635682-78.808595c8.69965-5.117441 13.817091-14.328836 13.817091-24.051974v-157.617192c0-9.723138-5.629185-18.934533-13.817091-24.051974z m-41.963019 165.805098l-108.489755 62.432783-108.489755-62.432783v-125.377312l108.489755-62.432783 108.489755 62.432783v125.377312z" p-id="2538"></path><path d="M871.756122 0H152.243878c-45.545227 0-82.390805 36.333833-82.390805 80.855572v862.288856c0 44.521739 36.845577 80.855572 82.390805 80.855572h406.324838c16.887556 0 30.704648-13.817091 30.704647-30.704648s-13.817091-30.704648-30.704647-30.704647H152.243878c-11.770115 0-21.493253-8.69965-21.493253-19.446277V80.855572c0-10.746627 9.723138-19.446277 21.493253-19.446277h719.0005c11.770115 0 21.493253 8.69965 21.493253 19.446277v488.203898c0 16.887556 13.817091 30.704648 30.704648 30.704648s30.704648-13.817091 30.704648-30.704648V80.855572c0-44.521739-36.845577-80.855572-82.390805-80.855572z" p-id="2539"></path><path d="M271.992004 245.125437h462.616692c16.887556 0 30.192904-13.305347 30.192903-30.192903s-13.305347-30.192904-30.192903-30.192904H271.992004c-16.887556 0-30.192904 13.305347-30.192904 30.192904s13.305347 30.192904 30.192904 30.192903zM735.632184 427.306347c7.676162 0 14.84058-3.070465 20.469765-8.187906 6.14093-5.629185 9.211394-13.817091 9.211394-22.004998 0-16.887556-13.305347-30.192904-30.192903-30.192903H271.992004c-16.887556 0-30.192904 13.305347-30.192904 30.192903s13.305347 30.192904 30.192904 30.192904H735.632184zM271.992004 549.613193c-16.887556 0-30.192904 13.305347-30.192904 30.192904 0 16.887556 13.305347 30.192904 30.192904 30.192903h216.97951c16.887556 0 30.192904-13.305347 30.192904-30.192903 0-16.887556-13.305347-30.192904-30.192904-30.192904H271.992004z" p-id="2540"></path></svg>