<svg t="1767776171420" class="icon" viewBox="0 0 1024 1024" version="1.1" xmlns="http://www.w3.org/2000/svg" p-id="16135" id="mx_n_1767776171421" width="200" height="200"><path d="M511.699001-0.0301c282.939447 0 511.699001 228.759553 511.699 511.699001s-228.759553 511.699001-511.699 511.699-511.699001-228.759553-511.699001-511.699 228.759553-511.699001 511.699001-511.699001z" fill="#E2E4EA" p-id="16136" data-spm-anchor-id="a313x.search_index.0.i2.7f693a81mTQIAR" class=""></path><path d="M409.3592 237.759436c-33.109935 105.349794-90.299824 198.659612-171.569664 273.909465l33.109935 30.099941c81.269841-81.269841 141.469724-180.599647 177.589653-288.959436l-39.129924-15.04997z m204.679601 319.059376l-39.129924 12.039977c24.079953 36.119929 45.149912 75.249853 66.219871 114.379777-87.28983 15.049971-177.589653 24.079953-267.889477 30.099941 63.209877-81.269841 114.379777-168.559671 156.519694-261.869489l-42.139917-15.04997c-72.239859 162.539683-132.439741 255.8495-180.599648 279.929453l9.029983 42.139918c126.419753-9.029982 243.809524-21.069959 346.149324-39.129924 9.029982 21.069959 18.059965 42.139918 30.099941 63.209877l39.129923-18.059965c-33.109935-72.239859-72.239859-141.469724-117.38977-207.689595z m-9.029983-325.079365l-36.119929 21.069959c33.109935 114.379777 96.319812 213.709583 186.619635 288.959436l30.099942-36.11993c-84.279835-69.229865-147.489712-165.549677-180.599648-273.909465z" fill="#484F59" p-id="16137"></path></svg>