<svg t="1697677611262" class="icon" viewBox="0 0 1024 1024" version="1.1" xmlns="http://www.w3.org/2000/svg" p-id="5637" width="200" height="200"><path d="M959.86 542c-1.28-6.62-3.29-13.28-5.89-19.28l-0.16-0.38-0.18-0.36c-6.31-13.89-15.02-27.08-25.93-39.19-11.42-12.69-22.39-21.77-33.56-27.79-5.86-3.05-11.73-5.43-18.5-7.54a96.59 96.59 0 0 0-24.05-4.11 82.98 82.98 0 0 0-3.23-0.06c-8.4 0-16.9 1.31-25.25 3.9-9.8 3.02-19.23 8.13-27.99 15.14l-0.53 0.42-0.51 0.44c-4.31 3.66-9.28 8.22-14.81 13.58-4.97 4.86-9.19 8.89-12.74 12.23l-3.65 3.49-0.12-0.12-2.68 2.75-28.18 26.75 1.12 1.15-2.26 2.35-98.68 101.77-37.19 38.35-33.49 34.57c-10.27 10.57-18.88 19.49-25.75 26.8l-11.04 11.6-1.55 1.63c-6.39 6.58-11.57 13-15.56 19.37-3.29 5.17-6.36 11.01-9.04 17.21-2.58 5.19-5.06 11.72-8.09 21.07-2.59 7.95-5.26 16.76-8.02 26.34-2.62 9.11-5.11 17.91-7.47 26.47-3.03 11.17-4.74 18.98-5.64 25.53-3.13 20.94 0.8 39.02 11.79 53.13 6.57 8.28 20.94 21.47 46.72 21.47 3.21 0 6.57-0.19 10.03-0.58l0.93-0.11 0.93-0.16c5.49-0.87 12.48-2.48 22.65-5.21 8.64-2.33 17.82-5.11 28.11-8.51 9.64-3.22 18.88-6.52 27.66-9.84 9.52-3.67 16.76-6.77 22.35-9.55 7.33-3.41 14.38-7.79 20.95-13.05 4.39-3.44 8.44-6.85 12.07-10.2 3.09-2.62 6.82-6.35 14.15-13.86 6.62-6.87 14.78-15.37 24.61-25.62 8.9-9.38 19.19-19.92 32.47-33.31l0.27-0.27 0.27-0.29 36.73-38.31 98.52-101.62 31.84-32.83-0.11-0.11 0.36-0.33c2.79-2.52 5.86-5.46 9.1-8.75 1.95-2.02 4.26-4.32 6.9-6.92 3.19-3.16 6.71-6.68 10.62-10.71l0.68-0.69 0.63-0.71c7.24-8.13 12.73-17.12 16.28-26.74a82.412 82.412 0 0 0 5.27-28.93c-0.01-7.34-0.74-14.58-2.16-21.47zM749.81 749.06l-36.73 38.31c-12.21 12.3-23.22 23.57-33.03 33.88-9.78 10.22-17.89 18.65-24.32 25.31-6.45 6.62-10.27 10.43-11.49 11.31-3.04 2.87-6.56 5.86-10.55 8.98-3.96 3.16-8.09 5.71-12.38 7.66-4.3 2.18-10.55 4.85-18.8 8.04-8.28 3.12-16.91 6.2-25.93 9.22-9.03 2.99-17.59 5.61-25.71 7.79-8.11 2.18-14.14 3.62-18.14 4.26-1.79 0.21-3.45 0.3-4.98 0.3-5.52 0-9.37-1.34-11.53-4.06-2.75-3.53-3.51-9.34-2.3-17.52 0.61-4.43 2.07-10.82 4.35-19.22 2.31-8.37 4.74-16.99 7.35-25.99 2.6-9.04 5.11-17.32 7.57-24.86 2.46-7.58 4.43-12.79 5.98-15.63 1.82-4.41 3.9-8.44 6.2-12.06 2.27-3.62 5.58-7.64 9.86-12.06 1.85-1.93 6.14-6.4 12.87-13.51 6.71-7.15 15.14-15.87 25.24-26.28l33.49-34.55 37.18-38.35 98.67-101.78 85.84 89-98.71 101.81z m164.77-173.28c-1.53 4.12-3.97 8.05-7.35 11.84-3.66 3.77-6.95 7.06-9.87 9.95-2.88 2.83-5.41 5.36-7.56 7.58-2.44 2.49-4.74 4.73-6.86 6.62l-85.84-88.51c3.67-3.48 8.06-7.65 13.08-12.56 5.05-4.89 9.27-8.74 12.63-11.61 4.27-3.43 8.73-5.9 13.29-7.32 4.15-1.29 8.25-1.93 12.27-1.93 0.42 0 0.85 0 1.28 0.02 4.42 0.19 8.72 0.87 12.84 2.12 4.14 1.29 7.73 2.71 10.78 4.3 6.45 3.47 13.57 9.51 21.37 18.19 7.82 8.68 13.82 17.75 18.12 27.24 1.23 2.85 2.22 6.16 2.95 9.95 0.78 3.78 1.17 7.71 1.17 11.84-0.01 4.07-0.75 8.16-2.3 12.28z" p-id="5638"></path><path d="M372.22 899.93H181.58c-32.75 0-59.4-27.48-59.4-61.26V185.32c0-33.78 26.65-61.25 59.4-61.25h633.45c32.75 0 59.38 27.47 59.38 61.25v166.3c0 17.14 13.48 31.03 30.09 31.03s30.09-13.89 30.09-31.03v-166.3c0-68-53.65-123.32-119.57-123.32H181.58C115.64 62 62 117.32 62 185.32v653.35c0 68 53.64 123.34 119.58 123.34h190.64c16.62 0 30.09-13.9 30.09-31.04 0-17.15-13.47-31.04-30.09-31.04z" p-id="5639"></path><path d="M737.09 264.54c0-17.14-13.48-31.03-30.09-31.03H278.22c-16.61 0-30.09 13.89-30.09 31.03s13.48 31.04 30.09 31.04H707c16.61-0.01 30.09-13.9 30.09-31.04zM278.22 397.26c-16.62 0-30.09 13.89-30.09 31.03s13.47 31.04 30.09 31.04h295.87c16.62 0 30.09-13.89 30.09-31.04 0-17.14-13.47-31.03-30.09-31.03H278.22zM446.21 572.31H278.22c-16.62 0-30.09 13.89-30.09 31.03s13.47 31.04 30.09 31.04h167.99c16.61 0 30.09-13.89 30.09-31.04 0-17.14-13.48-31.03-30.09-31.03z" p-id="5640"></path></svg>