<?xml version="1.0" encoding="UTF-8"?>
<svg width="14px" height="16px" viewBox="0 0 14 16" version="1.1" xmlns="http://www.w3.org/2000/svg" xmlns:xlink="http://www.w3.org/1999/xlink">
    <title>编组 43</title>
    <g id="工作看板" stroke="none" stroke-width="1" fill="none" fill-rule="evenodd">
        <g id="05试卷预览" transform="translate(-517.000000, -469.000000)">
            <g id="编组-28" transform="translate(348.000000, 457.000000)">
                <g id="编组-43" transform="translate(169.000000, 13.000000)">
                    <polygon id="多边形" stroke="#000000" points="7 0 13.0621778 3.5 13.0621778 10.5 7 14 0.937822174 10.5 0.937822174 3.5"></polygon>
                    <g id="权限设置" transform="translate(5.000000, 3.000000)" fill="#000000" fill-rule="nonzero">
                        <path d="M1.94761114,0 C3.02325602,0 3.8952375,0.871981488 3.8952375,1.94761114 C3.8952375,2.85511035 3.27454545,3.61764485 2.43453296,3.83385824 L2.43453296,4.86903546 L3.8952375,4.86903546 L3.8952375,5.84284864 L2.4345025,5.84284864 L2.43451773,7.79045978 L1.46071978,7.79045978 L1.46068931,3.83385824 C0.620692056,3.61764485 0,2.85511035 0,1.94761114 C0,0.871981488 0.871981488,0 1.94761114,0 L1.94761114,0 Z M1.94761114,0.973813184 C1.40980393,0.973813184 0.973813184,1.40980393 0.973813184,1.94761114 C0.973813184,2.48543358 1.40980393,2.92142432 1.94761114,2.92142432 C2.48543358,2.92142432 2.92142432,2.48543358 2.92142432,1.94761114 C2.92142432,1.40980393 2.48543358,0.973813184 1.94761114,0.973813184 Z" id="形状"></path>
                    </g>
                </g>
            </g>
        </g>
    </g>
</svg>