<svg t="1686797383910" class="icon" viewBox="0 0 1024 1024" version="1.1" xmlns="http://www.w3.org/2000/svg" p-id="4698" width="200" height="200"><path d="M917.333333 730.933333V981.333333H106.666667V42.666667h810.666666v243.733333c27.061333 43.893333 42.666667 95.594667 42.666667 150.933333a286.933333 286.933333 0 0 1-73.354667 192.021334l30.549334 30.549333a34.133333 34.133333 0 0 1 34.144 8.501333l48.277333 48.266667a34.133333 34.133333 0 0 1-48.277333 48.277333L917.333333 730.933333z m-32-57.642666l-21.312-21.312A286.933333 286.933333 0 0 1 672 725.333333c-159.061333 0-288-128.938667-288-288s128.938667-288 288-288c84.586667 0 160.64 36.458667 213.333333 94.517334V74.666667H138.666667v874.666666h746.666666V673.290667zM672 693.333333c141.386667 0 256-114.613333 256-256S813.386667 181.333333 672 181.333333 416 295.946667 416 437.333333s114.613333 256 256 256z m-88-229.333333H480v-32h88l74.730667-99.648 75.306666 150.613333 42.464-50.965333H864v32h-88.501333l-64.202667 77.034667-74.026667-148.053334L584 464zM533.333333 896a32 32 0 1 1 0-64 32 32 0 0 1 0 64z" p-id="4699"></path></svg>