<svg xmlns="http://www.w3.org/2000/svg" viewBox="0 0 26 26" class="design-iconfont">
  <path d="M15.2867188,8.48417969 L9.0640625,8.48417969 L11.1470703,6.40117187 C11.4353516,6.11289062 11.4353516,5.64707031 11.1470703,5.36054687 C10.8587891,5.07226562 10.3929688,5.07226562 10.1064453,5.36054687 L6.84042969,8.62480469 C6.68222656,8.78300781 6.61542969,8.99394531 6.62949219,9.19960937 C6.61367188,9.40527344 6.68222656,9.61621094 6.84042969,9.77441406 L10.1046875,13.0386719 C10.2488281,13.1828125 10.4369141,13.2548828 10.625,13.2548828 C10.8130859,13.2548828 11.0011719,13.1828125 11.1453125,13.0386719 C11.4335938,12.7503906 11.4335938,12.2845703 11.1453125,11.9980469 L9.10449219,9.95722656 L15.1935547,9.95722656 C17.7652344,9.95722656 19.9326172,11.9822266 19.990625,14.5539062 C20.0503906,17.1958984 17.9181641,19.3650391 15.2884766,19.3650391 L14.3462891,19.3650391 C14.3357422,19.3650391 14.3234375,19.3632812 14.3128906,19.3632812 L7.99355469,19.3632812 C7.98125,19.3632812 7.97070313,19.3650391 7.96015625,19.3650391 C7.60859375,19.3808594 7.32382813,19.6410156 7.26757813,19.9802734 L7.26757813,20.2228516 C7.32382813,20.5603516 7.60859375,20.8205078 7.95664063,20.8380859 L15.1777344,20.8380859 C18.5632813,20.8380859 21.4003906,18.1591797 21.4619141,14.7753906 C21.5251953,11.3177734 18.7302734,8.48417969 15.2867188,8.48417969 Z" fill="#3D7FFF" fill-rule="nonzero"/>
</svg>
