<svg t="1697678936161" class="icon" viewBox="0 0 1024 1024" version="1.1" xmlns="http://www.w3.org/2000/svg" p-id="3747" width="200" height="200"><path d="M297.601659 1005.038442a227.538701 227.538701 0 0 1-227.538701-227.538701v-530.923636a227.728316 227.728316 0 0 1 227.538701-227.5387h361.634842a227.76624 227.76624 0 0 1 227.538701 227.5387v125.146286a37.923117 37.923117 0 0 1-75.846234 0v-125.146286a151.692467 151.692467 0 0 0-151.692467-151.692467H297.601659a151.692467 151.692467 0 0 0-151.692467 151.692467v530.923636a151.692467 151.692467 0 0 0 151.692467 151.692467h351.585216a37.923117 37.923117 0 1 1 0 75.846234z m-17.444634-521.518703a37.923117 37.923117 0 1 1 0-75.846233h172.89149a37.923117 37.923117 0 1 1 0 75.846233z m0-173.612028a37.923117 37.923117 0 0 1 0-75.846234h308.770017a37.923117 37.923117 0 0 1 0 75.846234z" p-id="3748"></path><path d="M800.841419 851.032664a37.695578 37.695578 0 0 1 0-53.623287l57.339753-57.339753h-289.618843a37.923117 37.923117 0 0 1 0-75.846233h289.694689l-57.339753-57.263907a37.923117 37.923117 0 1 1 53.623288-53.699133l64.469298 64.469299a119.647434 119.647434 0 0 1 0 169.25087l-64.469298 64.469299a37.923117 37.923117 0 0 1-53.623288 0z" p-id="3749"></path></svg>