<svg t="1711606518512" class="icon" viewBox="0 0 1024 1024" version="1.1" xmlns="http://www.w3.org/2000/svg" p-id="2332" width="200" height="200"><path d="M776.340596 136.110334l-369.442335 0c-7.573056 0-14.839097 2.967819-20.263042 8.187088L201.197681 324.822706c-5.526284 5.423946-8.801119 12.997002-8.801119 20.774735l-1.023386 513.637418c0 7.777733 2.967819 15.043774 8.494104 20.570058 5.526284 5.526284 12.792325 8.494104 20.570058 8.494104L382.746352 888.299021c12.485309 0 22.514491-10.029182 22.514491-22.514491s-10.029182-22.514491-22.514491-22.514491L236.402159 843.270038l0.921047-467.687388 194.03398 0c16.681191 0 30.189886-13.508695 30.189886-30.189886L461.547072 181.139316l298.828703 0 0 665.200879L621.195283 846.340196c-12.485309 0-22.514491 10.029182-22.514491 22.514491s10.029182 22.514491 22.514491 22.514491l155.145313 0c16.06716 0 29.064162-12.997002 29.064162-29.064162L805.404757 165.174495C805.404757 149.107336 792.407755 136.110334 776.340596 136.110334zM416.518089 330.553668 259.837697 330.553668l153.610234-149.414351 3.172497 0L416.620428 330.553668zM713.30002 461.547072c0-12.485309-10.029182-22.514491-22.514491-22.514491L326.460124 439.03258c-12.485309 0-22.514491 10.029182-22.514491 22.514491l0 0c0 12.485309 10.029182 22.514491 22.514491 22.514491l364.325405 0C703.270837 484.061563 713.30002 474.032381 713.30002 461.547072L713.30002 461.547072zM713.30002 538.301019c0-12.485309-10.029182-22.514491-22.514491-22.514491L326.460124 515.786528c-12.485309 0-22.514491 10.029182-22.514491 22.514491l0 0c0 12.485309 10.029182 22.514491 22.514491 22.514491l364.325405 0C703.270837 560.815511 713.30002 550.786328 713.30002 538.301019L713.30002 538.301019zM713.30002 616.078353c0-12.485309-10.029182-22.514491-22.514491-22.514491L326.460124 593.563862c-12.485309 0-22.514491 10.029182-22.514491 22.514491l0 0c0 12.485309 10.029182 22.514491 22.514491 22.514491l364.325405 0C703.270837 638.592844 713.30002 628.563662 713.30002 616.078353L713.30002 616.078353zM501.970818 675.844094c-1.535079-1.535079-4.093544-1.43274-5.526284 0.102339l-54.853488 59.458725c-2.251449 2.456126-0.511693 6.447332 2.865481 6.447332L479.968019 741.852489l0 88.829902c0 2.251449 1.842095 4.298221 4.093544 4.298221l36.841895 0c2.251449 0 4.093544-2.046772 4.093544-4.298221L524.997002 741.954827l35.511493 0c3.479512 0 5.219268-4.195882 2.660804-6.652009L501.970818 675.844094z" p-id="2333"></path></svg>