<svg t="1697677740360" class="icon" viewBox="0 0 1024 1024" version="1.1" xmlns="http://www.w3.org/2000/svg" p-id="6425" width="200" height="200"><path d="M921.66 345.94c-17.68 0-32 14.32-32 32v446.9c0 48.06-39.1 87.18-87.18 87.18H206.62c-48.06 0-87.18-39.1-87.18-87.18V228.96c0-48.06 39.1-87.18 87.18-87.18h446.9c17.68 0 32-14.32 32-32s-14.32-32-32-32H206.62c-83.36 0-151.18 67.82-151.18 151.18v595.86c0 83.36 67.82 151.18 151.18 151.18h595.86c83.36 0 151.18-67.82 151.18-151.18V377.94c0-17.68-14.34-32-32-32z"  p-id="6426"></path><path d="M832.28 320.56c75.14 0 136.28-61.14 136.28-136.28S907.42 48 832.28 48 696 109.14 696 184.28s61.14 136.28 136.28 136.28z m0-208.56c39.86 0 72.28 32.42 72.28 72.28s-32.42 72.28-72.28 72.28S760 224.12 760 184.28C760 144.42 792.42 112 832.28 112zM673.62 387.24l-126.54 151.84-94.4-94.4c-6-6-14.14-9.38-22.62-9.38s-16.62 3.38-22.62 9.38l-178.76 178.76c-12.5 12.5-12.5 32.76 0 45.26 6.24 6.24 14.44 9.38 22.62 9.38 8.18 0 16.38-3.12 22.62-9.38l156.14-156.14 96.54 96.54c6.36 6.36 15.08 9.76 24.08 9.34 8.98-0.4 17.38-4.58 23.14-11.48l148.96-178.76c11.32-13.58 9.48-33.76-4.1-45.08-13.56-11.3-33.74-9.46-45.06 4.12z" p-id="6427"></path></svg>