<svg t="1711532324871" class="icon" viewBox="0 0 1024 1024" version="1.1" xmlns="http://www.w3.org/2000/svg" p-id="2440" width="200" height="200"><path d="M1024 640V384H874.1c-15.9-44.9-39.9-86-70.3-121.5l75-129.9-221.7-128-74.9 129.8c-22.8-4.2-46.2-6.4-70.2-6.4s-47.4 2.2-70.2 6.4L366.9 4.6l-221.7 128 75 129.9c-30.4 35.5-54.4 76.6-70.3 121.5H0v256h149.9c15.9 44.9 39.9 86 70.3 121.5l-75 129.9 221.7 128 74.9-129.8c22.8 4.2 46.2 6.4 70.2 6.4s47.4-2.2 70.2-6.4l74.9 129.8 221.7-128-75-129.9c30.4-35.5 54.4-76.6 70.3-121.5H1024zM703.9 516.8c0 0.5 0 1.1-0.1 1.6 0 1-0.1 2.1-0.1 3.1 0 0.6-0.1 1.3-0.1 1.9-0.1 0.9-0.1 1.9-0.2 2.8-0.1 0.7-0.1 1.4-0.2 2-0.1 0.9-0.1 1.8-0.2 2.6-0.1 0.7-0.1 1.4-0.2 2.1-0.1 0.8-0.2 1.7-0.3 2.5-0.1 0.7-0.2 1.4-0.3 2.2l-0.3 2.4c-0.1 0.7-0.2 1.5-0.3 2.2-0.1 0.8-0.3 1.6-0.4 2.4-0.1 0.8-0.3 1.5-0.4 2.3-0.1 0.8-0.3 1.5-0.4 2.3-0.2 0.8-0.3 1.5-0.5 2.3-0.2 0.7-0.3 1.4-0.5 2.2-0.2 0.8-0.3 1.6-0.5 2.3-0.2 0.7-0.3 1.4-0.5 2.1l-0.6 2.4c-0.2 0.6-0.3 1.2-0.5 1.9-0.2 0.9-0.5 1.7-0.7 2.6-0.1 0.5-0.3 1-0.4 1.4l-1.8 5.7c-0.3 1-0.7 2-1 3-0.1 0.2-0.2 0.5-0.3 0.7-0.3 1-0.7 2-1.1 2.9-0.1 0.2-0.2 0.5-0.3 0.7l-1.2 3c0 0.1-0.1 0.2-0.1 0.3-1.3 3.3-2.7 6.5-4.2 9.7-0.1 0.1-0.1 0.3-0.2 0.4v0.1c-0.4 0.8-0.8 1.6-1.2 2.5-0.2 0.4-0.4 0.8-0.6 1.1-0.4 0.8-0.8 1.5-1.1 2.3-0.2 0.4-0.5 0.9-0.7 1.3-0.4 0.7-0.7 1.4-1.1 2.1-0.3 0.5-0.5 1-0.8 1.4-0.4 0.7-0.7 1.4-1.1 2l-0.9 1.5c-0.4 0.6-0.7 1.3-1.1 1.9-0.4 0.6-0.7 1.2-1.1 1.8-0.5 0.9-1 1.7-1.6 2.6-0.5 0.8-0.9 1.5-1.4 2.3-0.3 0.5-0.6 0.9-0.9 1.4-0.4 0.7-0.9 1.3-1.3 2-0.3 0.5-0.6 0.9-1 1.4-0.5 0.7-0.9 1.3-1.4 2-0.3 0.4-0.6 0.9-1 1.3-0.5 0.7-1 1.3-1.5 2l-0.9 1.2c-0.6 0.7-1.1 1.5-1.7 2.2-0.3 0.3-0.5 0.7-0.8 1-0.7 0.9-1.5 1.9-2.2 2.8l-0.3 0.3c-0.9 1.1-1.8 2.2-2.7 3.2 0 0.1-0.1 0.1-0.1 0.2-0.8 1-1.7 1.9-2.5 2.9-0.7 0.7-1.3 1.5-2 2.2-0.1 0.2-0.3 0.3-0.4 0.5-2.3 2.4-4.6 4.8-7 7.1l-0.6 0.6c-0.7 0.7-1.4 1.3-2.1 2-0.3 0.3-0.6 0.5-0.9 0.8-0.7 0.6-1.4 1.3-2.1 1.9-0.3 0.3-0.6 0.5-0.8 0.7-2.3 2-4.7 4-7 6-0.3 0.3-0.7 0.6-1 0.8-0.7 0.5-1.3 1.1-2 1.6-0.4 0.3-0.8 0.6-1.2 1-0.7 0.5-1.3 1-2 1.5-0.4 0.3-0.9 0.6-1.3 1-0.7 0.5-1.3 1-2 1.5-0.2 0.2-0.5 0.3-0.7 0.5-1.4 1-2.8 1.9-4.2 2.9-0.5 0.3-1 0.7-1.5 1-0.6 0.4-1.3 0.8-1.9 1.2-0.5 0.3-1.1 0.7-1.6 1-0.6 0.4-1.3 0.8-1.9 1.2-0.6 0.4-1.2 0.7-1.8 1-0.6 0.4-1.2 0.7-1.8 1.1-1 0.6-2 1.1-3 1.6-0.7 0.4-1.4 0.7-2 1.1-0.7 0.4-1.4 0.7-2.1 1.1l-1.8 0.9c-0.7 0.3-1.4 0.7-2 1l-1.8 0.9c-0.7 0.3-1.5 0.7-2.2 1-0.5 0.3-1.1 0.5-1.6 0.8-1.2 0.5-2.4 1.1-3.7 1.6-0.4 0.2-0.9 0.4-1.3 0.5-0.9 0.4-1.8 0.7-2.7 1.1-0.5 0.2-1.1 0.4-1.6 0.6l-2.4 0.9c-0.6 0.2-1.1 0.4-1.7 0.6-0.9 0.3-1.7 0.6-2.6 0.9-0.5 0.2-1 0.3-1.5 0.5-1.3 0.4-2.6 0.9-4 1.3l-0.9 0.3c-1.1 0.3-2.1 0.6-3.2 1-0.5 0.1-1 0.3-1.5 0.4-0.9 0.2-1.8 0.5-2.7 0.7-0.5 0.1-1.1 0.3-1.6 0.4-0.9 0.2-1.9 0.5-2.8 0.7-0.5 0.1-0.9 0.2-1.4 0.3-1.2 0.3-2.5 0.5-3.7 0.8-3.1 0.6-6.2 1.2-9.3 1.7-0.2 0-0.4 0.1-0.7 0.1-1.3 0.2-2.7 0.4-4 0.6-0.2 0-0.5 0.1-0.7 0.1-1.5 0.2-3 0.4-4.4 0.5h-0.2c-1.5 0.2-3 0.3-4.5 0.4h-0.2c-0.3 0-0.6 0-0.9 0.1-1.2 0.1-2.4 0.2-3.6 0.2h-0.1c-0.5 0-0.9 0-1.4 0.1-1.1 0.1-2.2 0.1-3.3 0.1h-1.4c-1.5 0-3.1 0.1-4.6 0.1s-3.1 0-4.6-0.1h-1.4c-1.1 0-2.2-0.1-3.3-0.1-0.5 0-0.9 0-1.4-0.1h-0.1c-1.2-0.1-2.4-0.1-3.6-0.2-0.3 0-0.6 0-0.9-0.1h-0.2c-1.5-0.1-3-0.3-4.5-0.4h-0.2c-1.5-0.2-3-0.3-4.4-0.5-0.2 0-0.5-0.1-0.7-0.1-1.3-0.2-2.7-0.4-4-0.6-0.2 0-0.4-0.1-0.7-0.1-3.1-0.5-6.2-1.1-9.3-1.7-1.2-0.3-2.5-0.5-3.7-0.8-0.5-0.1-0.9-0.2-1.4-0.3-0.9-0.2-1.9-0.5-2.8-0.7-0.5-0.1-1.1-0.3-1.6-0.4-0.9-0.2-1.8-0.5-2.7-0.7-0.5-0.1-1-0.3-1.5-0.4-1.1-0.3-2.1-0.6-3.2-1l-0.9-0.3c-1.3-0.4-2.7-0.8-4-1.3-0.5-0.2-1-0.3-1.5-0.5-0.9-0.3-1.7-0.6-2.6-0.9-0.6-0.2-1.1-0.4-1.7-0.6l-2.4-0.9c-0.6-0.2-1.1-0.4-1.6-0.6-0.9-0.4-1.8-0.7-2.7-1.1-0.4-0.2-0.9-0.3-1.3-0.5-1.2-0.5-2.5-1.1-3.7-1.6-0.5-0.2-1.1-0.5-1.6-0.8-0.7-0.3-1.5-0.7-2.2-1l-1.8-0.9c-0.7-0.3-1.4-0.7-2-1l-1.8-0.9c-0.7-0.4-1.4-0.7-2.1-1.1-0.7-0.4-1.4-0.7-2-1.1-1-0.5-2-1.1-3-1.6-0.6-0.3-1.2-0.7-1.8-1.1-0.6-0.3-1.2-0.7-1.8-1-0.6-0.4-1.3-0.8-1.9-1.2-0.5-0.3-1.1-0.7-1.6-1-0.6-0.4-1.3-0.8-1.9-1.2-0.5-0.3-1-0.7-1.5-1-1.4-0.9-2.8-1.9-4.2-2.9-0.2-0.2-0.5-0.3-0.7-0.5-0.7-0.5-1.4-1-2-1.5-0.4-0.3-0.9-0.6-1.3-1-0.7-0.5-1.3-1-2-1.5-0.4-0.3-0.8-0.6-1.2-1-0.7-0.5-1.4-1-2-1.6-0.4-0.3-0.7-0.6-1-0.8-2.4-1.9-4.7-3.9-7-6-0.3-0.2-0.6-0.5-0.8-0.7-0.7-0.6-1.4-1.3-2.1-1.9-0.3-0.3-0.6-0.5-0.9-0.8-0.7-0.7-1.4-1.3-2.1-2l-0.6-0.6c-2.4-2.3-4.7-4.7-7-7.1-0.1-0.2-0.3-0.3-0.4-0.5-0.7-0.7-1.3-1.4-2-2.2-0.9-1-1.7-1.9-2.5-2.9 0-0.1-0.1-0.1-0.1-0.2-0.9-1.1-1.8-2.1-2.7-3.2l-0.3-0.3c-0.7-0.9-1.5-1.8-2.2-2.8-0.3-0.3-0.5-0.7-0.8-1-0.6-0.7-1.1-1.5-1.7-2.2l-0.9-1.2c-0.5-0.7-1-1.3-1.5-2-0.3-0.4-0.6-0.9-1-1.3-0.5-0.6-0.9-1.3-1.4-2-0.3-0.5-0.6-0.9-1-1.4-0.4-0.7-0.9-1.3-1.3-2-0.3-0.5-0.6-0.9-0.9-1.4-0.5-0.8-1-1.5-1.4-2.3-0.5-0.8-1.1-1.7-1.6-2.6-0.4-0.6-0.7-1.2-1.1-1.8-0.4-0.6-0.7-1.3-1.1-1.9l-0.9-1.5c-0.4-0.7-0.7-1.3-1.1-2-0.3-0.5-0.5-1-0.8-1.4-0.4-0.7-0.8-1.4-1.1-2.1-0.2-0.4-0.5-0.9-0.7-1.3-0.4-0.8-0.8-1.5-1.1-2.3-0.2-0.4-0.4-0.8-0.6-1.1-0.4-0.8-0.8-1.6-1.2-2.5v-0.1c-0.1-0.1-0.1-0.3-0.2-0.4-1.5-3.2-2.9-6.4-4.2-9.7 0-0.1-0.1-0.2-0.1-0.3l-1.2-3c-0.1-0.2-0.2-0.5-0.3-0.7-0.4-1-0.7-2-1.1-2.9-0.1-0.2-0.2-0.5-0.3-0.7-0.4-1-0.7-2-1-3l-1.8-5.7c-0.1-0.5-0.3-1-0.4-1.4-0.2-0.9-0.5-1.7-0.7-2.6-0.2-0.6-0.3-1.2-0.5-1.9l-0.6-2.4c-0.2-0.7-0.3-1.4-0.5-2.1-0.2-0.8-0.4-1.6-0.5-2.3-0.2-0.7-0.3-1.4-0.5-2.2-0.2-0.8-0.3-1.5-0.5-2.3-0.1-0.8-0.3-1.5-0.4-2.3-0.1-0.7-0.3-1.5-0.4-2.3-0.1-0.8-0.3-1.6-0.4-2.4-0.1-0.7-0.2-1.5-0.3-2.2l-0.3-2.4c-0.1-0.7-0.2-1.4-0.3-2.2-0.1-0.8-0.2-1.7-0.3-2.5-0.1-0.7-0.2-1.4-0.2-2.1-0.1-0.9-0.2-1.8-0.2-2.6-0.1-0.7-0.1-1.4-0.2-2-0.1-0.9-0.1-1.9-0.2-2.8 0-0.6-0.1-1.3-0.1-1.9-0.1-1-0.1-2.1-0.1-3.1 0-0.5 0-1.1-0.1-1.6 0-1.6-0.1-3.2-0.1-4.8s0-3.2 0.1-4.8c0-0.5 0-1.1 0.1-1.6 0-1 0.1-2.1 0.1-3.1 0-0.6 0.1-1.3 0.1-1.9 0.1-0.9 0.1-1.9 0.2-2.8 0.1-0.7 0.1-1.4 0.2-2 0.1-0.9 0.1-1.8 0.2-2.6 0.1-0.7 0.1-1.4 0.2-2.1 0.1-0.8 0.2-1.7 0.3-2.5 0.1-0.7 0.2-1.4 0.3-2.2l0.3-2.4c0.1-0.7 0.2-1.5 0.3-2.2 0.1-0.8 0.3-1.6 0.4-2.4 0.1-0.8 0.3-1.5 0.4-2.3 0.1-0.8 0.3-1.5 0.4-2.3 0.2-0.8 0.3-1.5 0.5-2.3 0.2-0.7 0.3-1.4 0.5-2.2 0.2-0.8 0.3-1.6 0.5-2.3 0.2-0.7 0.3-1.4 0.5-2l0.6-2.4c0.2-0.6 0.3-1.2 0.5-1.8 0.2-0.9 0.5-1.7 0.7-2.6 0.1-0.5 0.3-1 0.4-1.4l1.8-5.7c0.3-1 0.7-2 1-3 0.1-0.2 0.2-0.5 0.3-0.7 0.3-1 0.7-2 1.1-2.9 0.1-0.2 0.2-0.5 0.3-0.7 0.4-1 0.8-2 1.1-3 0-0.1 0.1-0.2 0.1-0.3 1.3-3.3 2.7-6.5 4.2-9.7 0.1-0.1 0.1-0.3 0.2-0.4v-0.1c0.4-0.8 0.8-1.6 1.2-2.5 0.2-0.4 0.4-0.8 0.6-1.1 0.4-0.8 0.8-1.5 1.1-2.3 0.2-0.4 0.5-0.9 0.7-1.3 0.4-0.7 0.7-1.4 1.1-2.1 0.3-0.5 0.5-1 0.8-1.4 0.4-0.7 0.7-1.3 1.1-2l0.9-1.5c0.4-0.6 0.7-1.3 1.1-1.9 0.4-0.6 0.7-1.2 1.1-1.8 0.5-0.9 1-1.7 1.6-2.6 0.5-0.8 0.9-1.5 1.4-2.3 0.3-0.5 0.6-0.9 0.9-1.4 0.4-0.7 0.9-1.3 1.3-2 0.3-0.5 0.6-0.9 1-1.4 0.5-0.7 0.9-1.3 1.4-2 0.3-0.4 0.6-0.9 1-1.3 0.5-0.7 1-1.3 1.5-2l0.9-1.2c0.6-0.7 1.1-1.5 1.7-2.2 0.3-0.3 0.5-0.7 0.8-1 0.7-0.9 1.5-1.9 2.2-2.8 0.1-0.1 0.2-0.2 0.3-0.4 0.9-1.1 1.8-2.2 2.7-3.2 0-0.1 0.1-0.1 0.1-0.2 0.8-1 1.7-1.9 2.5-2.9 0.7-0.7 1.3-1.5 2-2.2 0.1-0.2 0.3-0.3 0.4-0.4 2.3-2.4 4.6-4.8 7-7.1l0.6-0.6c0.7-0.7 1.4-1.3 2.1-2 0.3-0.3 0.6-0.5 0.9-0.8 0.7-0.6 1.4-1.3 2.1-1.9 0.3-0.3 0.6-0.5 0.8-0.7 2.3-2 4.7-4 7.1-6 0.3-0.3 0.7-0.6 1-0.8 0.7-0.5 1.3-1.1 2-1.6 0.4-0.3 0.8-0.6 1.3-1 0.7-0.5 1.3-1 2-1.5 0.4-0.3 0.9-0.6 1.3-1 0.7-0.5 1.3-1 2-1.5 0.2-0.2 0.5-0.3 0.7-0.5 1.4-1 2.8-1.9 4.2-2.9 0.5-0.3 1-0.7 1.5-1 0.6-0.4 1.3-0.8 1.9-1.2 0.5-0.3 1.1-0.7 1.6-1 0.6-0.4 1.3-0.8 1.9-1.2 0.6-0.4 1.2-0.7 1.8-1 0.6-0.4 1.2-0.7 1.8-1.1 1-0.6 1.9-1.1 2.9-1.6 0.7-0.4 1.4-0.8 2.1-1.1 0.7-0.4 1.4-0.7 2.1-1.1l1.8-0.9c0.7-0.3 1.4-0.7 2-1l1.8-0.9c0.7-0.3 1.5-0.7 2.2-1 0.5-0.3 1.1-0.5 1.6-0.8 1.2-0.5 2.4-1.1 3.7-1.6 0.4-0.2 0.9-0.4 1.3-0.5 0.9-0.4 1.8-0.7 2.7-1.1 0.5-0.2 1.1-0.4 1.6-0.6l2.4-0.9c0.6-0.2 1.1-0.4 1.7-0.6 0.9-0.3 1.7-0.6 2.6-0.9 0.5-0.2 1-0.3 1.5-0.5 1.3-0.4 2.6-0.9 4-1.3l0.9-0.3c1.1-0.3 2.1-0.6 3.2-1 0.5-0.1 1-0.3 1.5-0.4 0.9-0.2 1.8-0.5 2.7-0.7 0.5-0.1 1.1-0.3 1.6-0.4 0.9-0.2 1.9-0.5 2.8-0.7 0.5-0.1 0.9-0.2 1.4-0.3 1.2-0.3 2.5-0.5 3.7-0.8 3.1-0.6 6.2-1.2 9.3-1.7 0.2 0 0.4-0.1 0.7-0.1 1.3-0.2 2.7-0.4 4-0.6 0.2 0 0.5-0.1 0.7-0.1 1.5-0.2 3-0.4 4.4-0.5h0.2c1.5-0.2 3-0.3 4.5-0.4h0.2c0.3 0 0.6 0 0.9-0.1 1.2-0.1 2.4-0.2 3.6-0.2h0.1c0.5 0 0.9 0 1.4-0.1 1.1-0.1 2.2-0.1 3.3-0.1h1.4c1.5 0 3.1-0.1 4.6-0.1s3.1 0 4.6 0.1h1.4c1.1 0 2.2 0.1 3.3 0.1 0.5 0 0.9 0 1.4 0.1h0.1c1.2 0.1 2.4 0.1 3.6 0.2 0.3 0 0.6 0 0.9 0.1h0.2c1.5 0.1 3 0.3 4.5 0.4h0.2c1.5 0.2 3 0.3 4.4 0.5 0.2 0 0.5 0.1 0.7 0.1 1.3 0.2 2.7 0.4 4 0.6 0.2 0 0.4 0.1 0.7 0.1 3.1 0.5 6.2 1.1 9.3 1.7 1.2 0.3 2.5 0.5 3.7 0.8 0.5 0.1 0.9 0.2 1.4 0.3 0.9 0.2 1.9 0.5 2.8 0.7 0.5 0.1 1.1 0.3 1.6 0.4 0.9 0.2 1.8 0.5 2.7 0.7 0.5 0.1 1 0.3 1.5 0.4 1.1 0.3 2.1 0.6 3.2 1l0.9 0.3c1.3 0.4 2.7 0.8 4 1.3 0.5 0.2 1 0.3 1.5 0.5 0.9 0.3 1.7 0.6 2.6 0.9 0.6 0.2 1.1 0.4 1.7 0.6l2.4 0.9c0.6 0.2 1.1 0.4 1.6 0.6 0.9 0.4 1.8 0.7 2.7 1.1 0.4 0.2 0.9 0.3 1.3 0.5 1.2 0.5 2.5 1.1 3.7 1.6 0.5 0.2 1.1 0.5 1.6 0.8 0.7 0.3 1.5 0.7 2.2 1l1.8 0.9c0.7 0.3 1.4 0.7 2 1l1.8 0.9c0.7 0.4 1.4 0.7 2.1 1.1 0.7 0.4 1.4 0.7 2.1 1.1 1 0.5 1.9 1.1 2.9 1.6 0.6 0.3 1.2 0.7 1.8 1.1 0.6 0.3 1.2 0.7 1.8 1 0.6 0.4 1.3 0.8 1.9 1.2 0.5 0.3 1.1 0.7 1.6 1 0.6 0.4 1.3 0.8 1.9 1.2 0.5 0.3 1 0.7 1.5 1 1.4 0.9 2.8 1.9 4.2 2.9 0.2 0.2 0.5 0.3 0.7 0.5 0.7 0.5 1.4 1 2 1.5 0.4 0.3 0.9 0.6 1.3 1 0.7 0.5 1.3 1 2 1.5 0.4 0.3 0.8 0.6 1.3 1 0.7 0.5 1.4 1 2 1.6 0.3 0.3 0.7 0.6 1 0.8 2.4 1.9 4.7 3.9 7.1 6 0.3 0.2 0.6 0.5 0.8 0.7 0.7 0.6 1.4 1.3 2.1 1.9 0.3 0.3 0.6 0.5 0.9 0.8 0.7 0.7 1.4 1.3 2.1 2l0.6 0.6c2.4 2.3 4.7 4.7 7 7.1l0.4 0.4c0.7 0.7 1.3 1.4 2 2.2 0.9 1 1.7 1.9 2.5 2.9 0 0.1 0.1 0.1 0.1 0.2 0.9 1.1 1.8 2.1 2.7 3.2 0.1 0.1 0.2 0.2 0.3 0.4 0.7 0.9 1.5 1.8 2.2 2.8 0.3 0.3 0.5 0.7 0.8 1 0.6 0.7 1.1 1.5 1.7 2.2l0.9 1.2c0.5 0.7 1 1.3 1.5 2 0.3 0.4 0.6 0.9 1 1.3 0.5 0.6 0.9 1.3 1.4 2 0.3 0.5 0.6 0.9 1 1.4 0.4 0.7 0.9 1.3 1.3 2 0.3 0.5 0.6 0.9 0.9 1.4 0.5 0.8 1 1.5 1.4 2.3 0.5 0.9 1.1 1.7 1.6 2.6 0.4 0.6 0.7 1.2 1.1 1.8 0.4 0.6 0.7 1.3 1.1 1.9l0.9 1.5c0.4 0.7 0.7 1.3 1.1 2 0.3 0.5 0.5 1 0.8 1.4 0.4 0.7 0.7 1.4 1.1 2.1 0.2 0.4 0.5 0.9 0.7 1.3 0.4 0.8 0.8 1.5 1.1 2.3 0.2 0.4 0.4 0.8 0.6 1.1 0.4 0.8 0.8 1.6 1.2 2.5v0.1c0.1 0.1 0.1 0.3 0.2 0.4 1.5 3.2 2.9 6.4 4.2 9.7 0 0.1 0.1 0.2 0.1 0.3 0.4 1 0.8 2 1.1 3 0.1 0.2 0.2 0.5 0.3 0.7 0.4 1 0.7 2 1.1 2.9 0.1 0.2 0.2 0.5 0.3 0.7 0.4 1 0.7 2 1 3l1.8 5.7c0.1 0.5 0.3 1 0.4 1.4 0.2 0.9 0.5 1.7 0.7 2.6 0.2 0.6 0.3 1.2 0.5 1.8l0.6 2.4c0.2 0.7 0.3 1.4 0.5 2 0.2 0.8 0.4 1.6 0.5 2.3 0.2 0.7 0.3 1.4 0.5 2.2 0.2 0.8 0.3 1.5 0.5 2.3 0.1 0.8 0.3 1.5 0.4 2.3 0.1 0.7 0.3 1.5 0.4 2.3 0.1 0.8 0.3 1.6 0.4 2.4 0.1 0.7 0.2 1.5 0.3 2.2l0.3 2.4c0.1 0.7 0.2 1.4 0.3 2.2 0.1 0.8 0.2 1.7 0.3 2.5 0.1 0.7 0.2 1.4 0.2 2.1 0.1 0.9 0.2 1.8 0.2 2.6 0.1 0.7 0.1 1.4 0.2 2 0.1 0.9 0.1 1.9 0.2 2.8 0 0.6 0.1 1.3 0.1 1.9 0.1 1 0.1 2.1 0.1 3.1 0 0.5 0 1.1 0.1 1.6 0 1.6 0.1 3.2 0.1 4.8s-0.2 3.2-0.3 4.8z" p-id="2441"></path></svg>