<svg t="1697679142679" class="icon" viewBox="0 0 1024 1024" version="1.1" xmlns="http://www.w3.org/2000/svg" p-id="1698" width="200" height="200"><path d="M512 995.91964445a30.64035555 30.64035555 0 0 1-15.33724445-4.10737778l-392.53333333-226.62257778a30.72 30.72 0 0 1-15.32586667-26.55573334V285.36604445a30.72 30.72 0 0 1 15.32586667-26.55573334l392.53333333-226.62257778a30.65173333 30.65173333 0 0 1 30.72 0l392.53333334 226.62257778A30.72 30.72 0 0 1 935.25333333 285.36604445v453.2679111a30.72 30.72 0 0 1-15.32586666 26.55573334l-392.53333334 226.62257778a30.64035555 30.64035555 0 0 1-15.39413333 4.10737778z m-361.81333333-275.0008889l361.81333333 208.93013334 361.81333333-208.93013334V303.08124445L512 94.15111111 150.18666667 303.08124445z m754.34666666 17.7152z" p-id="1699"></path><path d="M512 708.26666667c-108.22542222 0-196.26666667-88.04124445-196.26666667-196.26666667S403.77457778 315.73333333 512 315.73333333 708.26666667 403.77457778 708.26666667 512 620.22542222 708.26666667 512 708.26666667z m0-331.19573334A134.92906667 134.92906667 0 1 0 646.92906667 512 135.08835555 135.08835555 0 0 0 512 377.07093333z" p-id="1700"></path></svg>