<svg t="1679450543183" class="icon" viewBox="0 0 1024 1024" version="1.1" xmlns="http://www.w3.org/2000/svg" p-id="5035" width="200" height="200"><path d="M565.87776 956.032a37.66272 37.66272 0 0 0 3.4304 0.01024c10.65984-0.4096 20.51072-4.94592 27.7504-12.75904s10.99776-17.99168 10.5984-28.64128a39.75168 39.75168 0 0 0-41.39008-38.32832l-503.78752 0.00512c-0.90624-0.03584-1.408-0.03584-1.92-0.03584-0.50688 0-1.00864 0-1.51552 0.02048-21.9904 0.84992-39.18848 19.40992-38.3488 41.39008a39.74656 39.74656 0 0 0 39.82848 38.36928c0.51712 0 1.04448-0.01024 1.5616-0.02048l503.79264-0.01024zM565.87776 399.12448a37.66272 37.66272 0 0 0 3.4304 0.00512 39.61344 39.61344 0 0 0 27.7504-12.75392 39.66976 39.66976 0 0 0 10.5984-28.63104 39.76192 39.76192 0 0 0-41.39008-38.34368l-302.44864 0.00512a65.8176 65.8176 0 0 0-1.91488-0.03584 36.9664 36.9664 0 0 0-1.5104 0.03072c-21.9904 0.8448-39.1936 19.40992-38.35392 41.39008a39.7568 39.7568 0 0 0 41.38496 38.33856l302.45376-0.00512zM565.87776 120.67328a37.66272 37.66272 0 0 0 3.4304 0.00512 39.6288 39.6288 0 0 0 27.7504-12.75392 39.68 39.68 0 0 0 10.5984-28.63616 39.76192 39.76192 0 0 0-41.39008-38.34368L364.53376 40.96a65.8176 65.8176 0 0 0-1.91488-0.03584c-0.50688 0-1.00864 0.01024-1.51552 0.03072-21.9904 0.83968-39.18848 19.40992-38.3488 41.39008a39.7568 39.7568 0 0 0 41.39008 38.33856l201.73312-0.01024zM565.87776 677.57568c0.90624 0.03584 1.408 0.04608 1.92 0.04608 0.50688 0 0.9984-0.01024 1.50016-0.03584 22.00064-0.83968 39.19872-19.40992 38.35904-41.3952a39.74656 39.74656 0 0 0-39.82848-38.35904c-0.52224 0-1.03424 0-1.5616 0.02048l-402.93376 0.01024c-0.90624-0.03072-1.408-0.03072-1.91488-0.03072-0.50688 0-1.00864 0-1.51552 0.02048a39.6544 39.6544 0 0 0-27.7504 12.75392 39.6288 39.6288 0 0 0-10.5984 28.63616 39.74656 39.74656 0 0 0 41.39008 38.33856l402.93376-0.00512zM740.08064 22.08768a32.768 32.768 0 0 1 7.57248 3.48672c1.39264 0.87552 2.72896 1.85856 3.9168 2.90816l236.2112 211.01056c1.1264 0.95744 2.01728 1.82272 2.816 2.78016a21.23776 21.23776 0 0 1 4.96128 15.616 21.30432 21.30432 0 0 1-7.57248 14.58176 35.2256 35.2256 0 0 1-22.784 8.46336 34.94912 34.94912 0 0 1-22.54848-8.2944L759.6544 110.27968v867.04128a30.68416 30.68416 0 0 1-30.46912 26.26048 30.7968 30.7968 0 0 1-30.39744-26.26048V45.55776a20.736 20.736 0 0 1 2.05312-8.8832l0.72704-1.74592c1.3568-2.38592 3.07712-4.50048 5.0688-6.25152a34.72384 34.72384 0 0 1 33.44384-6.58944z" p-id="5036"></path></svg>