<svg t="1697677664426" class="icon" viewBox="0 0 1035 1024" version="1.1" xmlns="http://www.w3.org/2000/svg" p-id="5834" width="200" height="200"><path d="M805.33379733 102.40138027h-48.73716266c0.22632533-38.166128-30.47107733-69.31618027-68.63720534-69.65290774h-298.3074272c-38.24341013-0.22632533-69.4265824 30.59251947-69.65290773 68.8359296v0.81697814h-55.64283627a136.89352107 136.89352107 0 0 0-97.47432533 40.6115424 142.13211733 142.13211733 0 0 0-40.6115424 97.47432533v610.62492587a137.6939392 137.6939392 0 0 0 40.6115424 97.47432533 136.2366272 136.2366272 0 0 0 96.45862293 40.6115424h543.003424c75.44351573-1.435232 135.93853973-62.83555627 136.2587072-138.290112V239.67026987c-0.11040213-75.7636832-61.5052064-137.15848747-137.2688896-137.2688896z m-426.44603413 0a9.351088 9.351088 0 0 1 9.9472608-9.95278187h299.11888533a9.351088 9.351088 0 0 1 9.9527808 9.94726187v99.50573013a9.351088 9.351088 0 0 1-9.9472608 9.9527808h-298.3074272a9.351088 9.351088 0 0 1-9.95278186-9.9472608l-0.81145707-99.50573013z m504.0147968 747.6895712c0 42.84167147-34.7326112 77.57428373-77.57428267 77.57428373h-540.9720192c-42.84167147 0-77.57428373-34.7326112-77.57428373-77.57428373V239.67026987c0-42.84167147 34.7326112-77.57428373 77.57428373-77.57428374h55.64283627v40.6115424c-0.22632533 38.24341013 30.59251947 69.4265824 68.8359296 69.65290774h299.12440533c38.24341013-0.32568747 68.9794528-31.59718187 68.64824534-69.840592l-0.01104-0.82801814v-40.6115424h46.7057568c42.504944-0.33672747 77.23203627 33.843872 77.57428373 76.348816v612.66185174h2.0258848z" p-id="5835"></path><path d="M706.84376853 410.65606827a28.63287573 28.63287573 0 0 0-20.3085312 8.9370784l-204.89591146 203.068752-90.5686528-89.75719467a27.6392544 27.6392544 0 0 0-20.3085312-7.921376 32.08847253 32.08847253 0 0 0-20.3085312 7.921376 29.64305813 29.64305813 0 0 0 0 41.83149013l112.29585493 112.29585494a27.6392544 27.6392544 0 0 0 20.3085312 7.921376 32.08847253 32.08847253 0 0 0 20.3085312-7.921376l224.3874656-225.60741227a28.83160107 28.83160107 0 0 0 0-41.83149013 30.27787307 30.27787307 0 0 0-20.3085312-8.9370784h-0.60169387z" p-id="5836"></path></svg>