<svg t="1697677704880" class="icon" viewBox="0 0 1024 1024" version="1.1" xmlns="http://www.w3.org/2000/svg" p-id="6226" width="200" height="200"><path d="M486.4 669.866667c8.533333 8.533333 21.333333 25.6 25.6 38.4 136.533333-42.666667 153.6-128 157.866667-294.4h-46.933334c-4.266667 149.333333-12.8 217.6-136.533333 256z" p-id="6227"></path><path d="M785.066667 669.866667c-21.333333-21.333333-68.266667-59.733333-102.4-81.066667l-29.866667 29.866667c34.133333 25.6 81.066667 64 102.4 89.6l29.866667-38.4z" p-id="6228"></path><path d="M597.333333 345.6h-64v247.466667h46.933334V388.266667h132.266666v204.8h46.933334V345.6h-110.933334c8.533333-17.066667 12.8-34.133333 21.333334-51.2h110.933333v-42.666667H512v42.666667h102.4c-4.266667 17.066667-8.533333 38.4-17.066667 51.2z" p-id="6229"></path><path d="M405.333333 695.466667v-81.066667h93.866667v-42.666667H405.333333v-55.466666H512v-42.666667H243.2v42.666667h115.2v149.333333c-17.066667-12.8-25.6-29.866667-38.4-51.2 4.266667-21.333333 4.266667-46.933333 4.266667-68.266667l-46.933334-4.266666c-4.266667 85.333333-12.8 153.6-51.2 200.533333 12.8 4.266667 29.866667 17.066667 38.4 25.6 21.333333-25.6 34.133333-59.733333 42.666667-98.133333 51.2 72.533333 132.266667 85.333333 251.733333 85.333333H768c4.266667-12.8 12.8-34.133333 17.066667-46.933333h-221.866667c-59.733333 8.533333-115.2 4.266667-157.866667-12.8zM482.133333 247.466667H277.333333v192h209.066667V247.466667z m-51.2 153.6H324.266667v-38.4h106.666666v38.4z m0-76.8H324.266667v-38.4h106.666666v38.4z" p-id="6230"></path><path d="M896 42.666667H128c-46.933333 0-85.333333 38.4-85.333333 85.333333v768c0 46.933333 38.4 85.333333 85.333333 85.333333h768c46.933333 0 85.333333-38.4 85.333333-85.333333V128c0-46.933333-38.4-85.333333-85.333333-85.333333z m29.866667 853.333333c0 17.066667-12.8 29.866667-29.866667 29.866667H128c-17.066667 0-29.866667-12.8-29.866667-29.866667V128c0-17.066667 12.8-29.866667 29.866667-29.866667h768c17.066667 0 29.866667 12.8 29.866667 29.866667v768z" p-id="6231"></path></svg>