<svg t="1677580643238" class="icon" viewBox="0 0 1024 1024" version="1.1" xmlns="http://www.w3.org/2000/svg" p-id="6154" width="200" height="200"><path d="M512 898c213.182 0 386-172.818 386-386S725.182 126 512 126 126 298.818 126 512s172.818 386 386 386z m0 60C265.681 958 66 758.319 66 512S265.681 66 512 66s446 199.681 446 446-199.681 446-446 446z" fill="#409eff" p-id="6155"></path><path d="M663.092 628.735c9.726 9.8 9.667 25.629-0.132 35.355-9.8 9.727-25.629 9.668-35.355-0.132L494.257 529.612A25 25 0 0 1 487 512V216.393c0-13.807 11.193-25 25-25s25 11.193 25 25v285.306l126.092 127.036z" fill="#409eff" p-id="6156"></path></svg>
