<svg t="1752029748531" class="icon" viewBox="0 0 1024 1024" version="1.1" xmlns="http://www.w3.org/2000/svg" p-id="24099" width="200" height="200"><path d="M577.3824 812.544H220.8768A77.568 77.568 0 0 1 143.36 735.0272V292.5568A77.568 77.568 0 0 1 220.8768 215.04H798.72a77.568 77.568 0 0 1 77.5168 77.5168v221.34784a28.50816 28.50816 0 0 1-57.02656 0V292.5568a20.48 20.48 0 0 0-20.48-20.48H220.8768a20.48 20.48 0 0 0-20.48 20.48v442.4704a20.48 20.48 0 0 0 20.48 20.48h356.51584a28.50816 28.50816 0 0 1 0 57.02656z m102.4-365.80352H272.19968a28.50816 28.50816 0 0 1 0-57.02656h407.62368a28.50816 28.50816 0 0 1 0 57.02656z m-197.632 136.7552h-215.552a28.50816 28.50816 0 1 1 0-57.02656h215.64416a28.50816 28.50816 0 1 1 0 57.02656z m370.03264 112.25088h-235.52a28.50816 28.50816 0 1 1 0-57.02656h235.52a28.50816 28.50816 0 0 1 0 57.02656z m-117.76 116.5824a28.52864 28.52864 0 0 1-28.50816-28.5184v-233.2672a28.50816 28.50816 0 0 1 57.02656 0v233.27744a28.52864 28.52864 0 0 1-28.416 28.50816z" p-id="24100"></path></svg>