<svg t="1679450554932" class="icon" viewBox="0 0 1024 1024" version="1.1" xmlns="http://www.w3.org/2000/svg" p-id="5184" width="200" height="200"><path d="M565.87776 956.02688a37.41184 37.41184 0 0 0 3.4304 0.01024 39.6544 39.6544 0 0 0 27.7504-12.75392 39.66464 39.66464 0 0 0 10.5984-28.64128 39.74656 39.74656 0 0 0-41.39008-38.33344l-503.78752 0.00512a51.38432 51.38432 0 0 0-3.43552-0.01024c-21.9904 0.8448-39.18848 19.40992-38.3488 41.39008a39.74656 39.74656 0 0 0 41.39008 38.34368l503.79264-0.01024zM565.87776 399.12448c0.90624 0.0256 1.408 0.03584 1.91488 0.03584s1.00864-0.01024 1.51552-0.03072c10.65984-0.40448 20.51072-4.93568 27.7504-12.75392s11.00288-17.98656 10.5984-28.63104a39.75168 39.75168 0 0 0-41.39008-38.34368l-302.44352 0.00512c-0.90624-0.0256-1.408-0.03584-1.91488-0.03584s-1.00864 0.01024-1.5104 0.03072c-21.9904 0.8448-39.1936 19.40992-38.35392 41.39008a39.7568 39.7568 0 0 0 41.38496 38.33856l302.44864-0.00512zM565.87776 120.67328c0.90624 0.0256 1.408 0.03584 1.91488 0.03584s1.00864-0.01024 1.51552-0.03072a39.6288 39.6288 0 0 0 27.7504-12.75392 39.6544 39.6544 0 0 0 10.5984-28.63616 39.7568 39.7568 0 0 0-41.39008-38.34368L364.53376 40.96c-0.90624-0.0256-1.408-0.03584-1.91488-0.03584s-1.00864 0.01024-1.51552 0.03072c-21.9904 0.83968-39.18848 19.40992-38.3488 41.39008a39.7568 39.7568 0 0 0 41.39008 38.33856l201.73312-0.01024zM565.87776 677.57568a36.72064 36.72064 0 0 0 3.42528 0.01024c21.99552-0.83968 39.1936-19.40992 38.35392-41.3952a39.74144 39.74144 0 0 0-41.39008-38.33856l-402.92864 0.01024a51.32288 51.32288 0 0 0-3.4304-0.01024 39.6544 39.6544 0 0 0-27.7504 12.75392 39.6288 39.6288 0 0 0-10.5984 28.63616 39.75168 39.75168 0 0 0 41.39008 38.33856l402.92864-0.00512zM729.14432 1003.58144a34.7392 34.7392 0 0 1-22.51776-8.33024 24.2176 24.2176 0 0 1-5.06368-6.25152l-0.72704-1.74592a20.608 20.608 0 0 1-2.05312-8.8832V46.61248a30.7968 30.7968 0 0 1 33.8944-26.06592 30.68416 30.68416 0 0 1 26.96192 26.06592v867.03616l182.99904-162.3552a34.93888 34.93888 0 0 1 22.5536-8.29952c8.28928 0 16.37888 3.01056 22.784 8.46848a21.28384 21.28384 0 0 1 7.57248 14.57664 21.22752 21.22752 0 0 1-4.96128 15.616c-0.79872 0.95232-1.6896 1.82784-2.81088 2.78016l-236.2112 211.01056a29.81888 29.81888 0 0 1-3.91168 2.90816 32.5632 32.5632 0 0 1-7.57248 3.48672 35.6864 35.6864 0 0 1-10.93632 1.7408z" p-id="5185"></path></svg>