<svg t="1679537970640" class="icon" viewBox="0 0 1024 1024" version="1.1" xmlns="http://www.w3.org/2000/svg" p-id="3170" width="200" height="200"><path d="M825.706966 441.424871H203.189395v-34.097206a344.868889 344.868889 0 0 1 24.842251-129.082282 331.230006 331.230006 0 0 1 67.220207-104.727134 308.336168 308.336168 0 0 1 97.42059-69.655722 283.493917 283.493917 0 0 1 119.340223-25.816457 292.26177 292.26177 0 0 1 118.366017 25.329354 313.6943 313.6943 0 0 1 97.42059 70.142825 524.609878 524.609878 0 0 1 60.400766 94.985075 40.916648 40.916648 0 0 0 36.045618 21.919633h15.587295a29.226177 29.226177 0 0 0 27.277765-39.942442 410.627787 410.627787 0 0 0-82.807502-129.569385A385.298434 385.298434 0 0 0 661.066169 32.258393a367.275625 367.275625 0 0 0-301.029624 0 384.324228 384.324228 0 0 0-122.749943 87.678531A409.166478 409.166478 0 0 0 155.940409 249.506309 420.369846 420.369846 0 0 0 125.252923 407.814768v535.813245A77.449369 77.449369 0 0 0 200.753881 1023.025794h622.030467a77.449369 77.449369 0 0 0 75.500958-79.397781v-429.137699a73.065443 73.065443 0 0 0-72.57834-73.065443z m-277.648682 248.909608v102.29162a36.045618 36.045618 0 0 1-72.578339 0v-102.29162A67.70731 67.70731 0 0 1 444.792459 633.343434a67.220207 67.220207 0 1 1 133.953311 0 66.246001 66.246001 0 0 1-30.687486 56.991045z" p-id="3171"></path></svg>
