<svg xmlns="http://www.w3.org/2000/svg" viewBox="0 0 21 20" class="design-iconfont">
  <g fill="#141423" fill-rule="nonzero">
    <path d="M10.0818456,1.25102863 C7.35970218,1.25102863 5.15606223,3.45504923 5.15606223,6.1776629 C5.15606223,8.90027658 7.35970218,11.1042972 10.0818456,11.1042972 C12.8039891,11.1042972 15.007629,8.90027658 15.007629,6.1776629 C15.007629,3.45504923 12.8039891,1.25102863 10.0818456,1.25102863 Z M10.0818456,9.7213823 C8.12881572,9.7213823 6.53873826,8.13103018 6.53873826,6.1776629 C6.53873826,4.22429562 8.12881572,2.63394352 10.0818456,2.63394352 C12.0348755,2.63394352 13.624953,4.22429564 13.624953,6.1776629 C13.624953,8.13103016 12.0348755,9.7213823 10.0818456,9.7213823 Z" transform="translate(.678019 .061261)"/>
    <path d="M9.88308594,9.85967378 C5.1128536,9.85967378 1.24136069,13.5762575 1.24136069,18.5028918 L18.5248112,18.5028918 C18.5248112,13.5762575 14.66196,9.85967378 9.88308594,9.85967378 Z M9.88308594,11.2425887 C13.4780436,11.2425887 16.3903051,13.7318355 17.0125093,17.1199769 L2.7536626,17.1199769 C3.38450855,13.7318355 6.28812824,11.2425887 9.88308594,11.2425887 Z" transform="translate(.678019 .061261)"/>
    <path d="M10.0818456,15.1666097 C9.91765285,15.1666097 9.76210179,15.0715343 9.692968,14.9245995 L7.72265464,10.9832921 C7.65352084,10.8450006 7.66216255,10.6894227 7.73993808,10.5597744 C7.81771361,10.4301262 7.95598122,10.3523372 8.11153227,10.3523372 L8.80287029,10.3523372 C8.96706307,10.3523372 9.12261413,10.4474126 9.19174792,10.5943473 L9.91765285,12.0464079 C9.95221975,12.1069105 10.0127118,12.1414833 10.0818456,12.1414833 C10.1509794,12.1414833 10.2114715,12.1069105 10.2460384,12.0464079 L10.9719433,10.5943473 C11.0497188,10.4474126 11.1966282,10.3523372 11.360821,10.3523372 L12.052159,10.3523372 C12.20771,10.3523372 12.3459777,10.4301262 12.4237532,10.5597744 C12.5015287,10.6894227 12.5101704,10.8536439 12.4410366,10.9832921 L10.4707233,14.9245995 C10.3929477,15.0715342 10.2460384,15.1666097 10.0818456,15.1666097 L10.0818456,15.1666097 Z" transform="translate(.678019 .061261)"/>
  </g>
</svg>
