<svg t="1697677478189" class="icon" viewBox="0 0 1024 1024" version="1.1" xmlns="http://www.w3.org/2000/svg" p-id="4666" width="200" height="200"><path d="M656.0256 267.2128V51.2l273.5616 273.6128h-215.9616a57.6 57.6 0 0 1-57.6-57.6z" fill="#179bfe" p-id="4667"></path><path d="M713.6256 376.0128a108.9536 108.9536 0 0 1-108.8-108.8V51.2H152.0128a57.5488 57.5488 0 0 0-57.6 57.6v806.4A57.5488 57.5488 0 0 0 152.0128 972.8h719.9744a57.5488 57.5488 0 0 0 57.6-57.6V376.0128z m-151.6544 410.4704H500.0704L457.216 609.28c-5.632-25.088-10.24-48.896-14.6944-73.1136H440.32c-4.3008 24.2176-9.5232 48.0256-14.6944 73.1136l-41.984 177.0496H323.0208L257.6896 467.9168h51.9168l29.9008 165.7856 16.8448 102.4h1.7408c6.912-34.2016 14.2848-68.4032 21.6576-102.4l40.96-165.7856h44.1344l41.5744 165.7856c7.3216 33.3312 14.2848 67.5328 21.6064 102.4h2.2016c5.12-34.6112 10.8032-68.8128 16.0256-102.4l30.3104-165.7856H624.64z" fill="#179bfe" p-id="4668"></path></svg>