<svg xmlns="http://www.w3.org/2000/svg" viewBox="0 0 36 36" class="design-iconfont">
  <path d="M18,0 C7.97142857,0 0,7.97142857 0,18 C0,28.0285714 7.97142857,36 18,36 C28.0285714,36 36,28.0285714 36,18 C36,7.97142857 28.0285714,0 18,0 Z M20.0571429,28.8 C20.0571429,30.0857143 19.2857143,30.8571429 18,30.8571429 C16.7142857,30.8571429 15.9428571,30.0857143 15.9428571,28.8 L15.9428571,16.9714286 C15.9428571,15.6857143 16.7142857,14.9142857 18,14.9142857 C19.2857143,14.9142857 20.0571429,15.6857143 20.0571429,16.9714286 L20.0571429,28.8 Z M21.0857143,9.25714286 C21.0857143,11.0571429 19.5428571,12.3428571 18,12.3428571 C16.4571429,12.3428571 14.9142857,11.0571429 14.9142857,9.25714286 C14.9142857,7.45714286 16.2,5.91428571 18,5.91428571 C19.8,5.91428571 21.0857143,7.45714286 21.0857143,9.25714286 Z" fill="#F60" fill-rule="nonzero"/>
</svg>
