<?xml version="1.0" standalone="no"?><!DOCTYPE svg PUBLIC "-//W3C//DTD SVG 1.1//EN" "http://www.w3.org/Graphics/SVG/1.1/DTD/svg11.dtd"><svg t="1725609386012" class="icon" viewBox="0 0 1024 1024" version="1.1" xmlns="http://www.w3.org/2000/svg" p-id="16068" xmlns:xlink="http://www.w3.org/1999/xlink" width="200" height="200"><path d="M651.726452 0h-139.726452v93.150968h93.150968v92.820645h-93.150968v93.150968h93.150968v93.150967h-93.150968v93.150968h93.150968v92.820645h-93.150968v-92.820645H418.849032v-93.150968h93.150968V279.122581H418.849032V186.301935h93.150968V93.150968H418.849032V0H131.79871A38.647742 38.647742 0 0 0 93.150968 38.647742v946.704516A38.647742 38.647742 0 0 0 131.79871 1024h759.741935a38.647742 38.647742 0 0 0 38.647742-38.647742V279.122581L651.726452 0zM605.150968 930.849032H418.849032v-326.028387h186.301936v326.028387z m46.575484-651.726451V93.150968l185.971613 185.971613z" fill="#1890FF" p-id="16069"></path></svg>