<?xml version="1.0" standalone="no"?><!DOCTYPE svg PUBLIC "-//W3C//DTD SVG 1.1//EN" "http://www.w3.org/Graphics/SVG/1.1/DTD/svg11.dtd"><svg t="1725609240797" class="icon" viewBox="0 0 1024 1024" version="1.1" xmlns="http://www.w3.org/2000/svg" p-id="6137" xmlns:xlink="http://www.w3.org/1999/xlink" width="200" height="200"><path d="M61.44 225.28a122.88 122.88 0 0 1 122.88-122.88h195.13344a81.92 81.92 0 0 1 73.27744 45.28128L512 266.24h327.68a122.88 122.88 0 0 1 122.88 122.88v409.6a122.88 122.88 0 0 1-122.88 122.88H184.32a122.88 122.88 0 0 1-122.88-122.88V225.28z" fill="#1890FF" p-id="6138" data-spm-anchor-id="a313x.search_index.0.i12.de003a81abs1n6" class="selected"></path><path d="M215.04 430.08h593.92a30.72 30.72 0 0 1 0 61.44h-593.92a30.72 30.72 0 0 1 0-61.44z" fill="#FFFFFF" p-id="6139"></path></svg>