<svg t="1712126323492" class="icon" viewBox="0 0 1024 1024" version="1.1" xmlns="http://www.w3.org/2000/svg" p-id="3575" width="200" height="200"><path d="M786.3 382.5m-40.9 0a40.9 40.9 0 1 0 81.8 0 40.9 40.9 0 1 0-81.8 0Z" fill="#FFFFFF" p-id="3576"></path><path d="M785.2 960.4V629.3c-2.6-24.3-23.6-43.3-49.4-44.3H278.9c-28.6 0-51.8 22.1-51.8 49.3V957c3 22 21.2 39.4 44.1 42.5h473.3c20.6-4 36.7-19.5 40.7-39.1zM785.2 167.4H225.8V112c0-38.7 31.3-70 70-70h419.4c38.7 0 70 31.3 70 70v55.4z" fill="#242424" p-id="3577"></path><path d="M908.4 208H101.3c-31.2 4.7-55.4 30.6-57.6 62.6v438.7c2.4 31.7 26.4 57.3 57.4 62.1H183V591.9v-0.5c0.1-28.4 26.9-51.4 60-51.4h528.3c29.9 1 54.2 20.9 57.2 46.2v185.2h79.2c31.9-3.6 57.1-29.2 60-61.3V266c-4.3-30.4-28.7-54.3-59.3-58z" fill="#242424" p-id="3578"></path></svg>