<svg t="1712713158215" class="icon" viewBox="0 0 1024 1024" version="1.1" xmlns="http://www.w3.org/2000/svg" p-id="2382" width="200" height="200"><path d="M896 992H128a32 32 0 0 1-32-32V64A32 32 0 0 1 128 32h768a32 32 0 0 1 32 32v896a32 32 0 0 1-32 32z m-736-64h704v-832h-704z" p-id="2383"></path><path d="M768 480H256a30.08 30.08 0 0 1-22.4-9.6l-128-128a31.36 31.36 0 0 1 44.8-44.8L269.44 416h485.12l119.04-118.4a31.36 31.36 0 0 1 44.8 44.8l-128 128a30.08 30.08 0 0 1-22.4 9.6z" p-id="2384"></path><path d="M512 256m-64 0a64 64 0 1 0 128 0 64 64 0 1 0-128 0Z" p-id="2385"></path><path d="M640 992a32 32 0 0 1-32-32v-224h-192V960a32 32 0 0 1-64 0v-256a32 32 0 0 1 32-32h256a32 32 0 0 1 32 32v256a32 32 0 0 1-32 32z" p-id="2386"></path></svg>